<?xml version="1.0" encoding="UTF-8" standalone="no"?>
<svg
   xml:space="preserve"
   stroke-miterlimit="10"
   style="clip-rule:evenodd;fill-rule:nonzero;stroke-linecap:round;stroke-linejoin:round"
   viewBox="0 0 774 815"
   version="1.1"
   id="svg1"
   sodipodi:docname="logo.svg"
   width="774"
   height="815"
   inkscape:version="1.3.2 (091e20e, 2023-11-25)"
   xmlns:inkscape="http://www.inkscape.org/namespaces/inkscape"
   xmlns:sodipodi="http://sodipodi.sourceforge.net/DTD/sodipodi-0.dtd"
   xmlns="http://www.w3.org/2000/svg"
   xmlns:svg="http://www.w3.org/2000/svg"
   xmlns:vectornator="http://vectornator.io"><defs
   id="defs1" /><sodipodi:namedview
   id="namedview1"
   pagecolor="#ffffff"
   bordercolor="#000000"
   borderopacity="0.25"
   inkscape:showpageshadow="2"
   inkscape:pageopacity="0.0"
   inkscape:pagecheckerboard="0"
   inkscape:deskcolor="#d1d1d1"
   inkscape:zoom="0.14390244"
   inkscape:cx="403.05085"
   inkscape:cy="316.18644"
   inkscape:window-width="1312"
   inkscape:window-height="858"
   inkscape:window-x="0"
   inkscape:window-y="44"
   inkscape:window-maximized="0"
   inkscape:current-layer="svg1" />
  <g
   vectornator:layerName="Layer 1"
   id="g1"
   transform="translate(-780,-502)">
    <path
   vectornator:layerName="Curve 1"
   d="m 806,506 c -5,3 -8,11 -9,23 a 447,447 0 0 0 -1,97 l -1,25 v 21 h 2 l -1,55 a 560,560 0 0 0 1,73 v 26 l 1,27 v 9 c -1,5 -1,10 1,15 v 26 c 1,0 2,14 2,41 l 1,40 h 8 l -1,-5 1,-7 1,-1 h -2 v -2 l 1,-2 1,-5 c 0,-3 -1,-4 -2,-5 l -1,-4 1,-3 2,5 c 2,3 2,8 1,14 -1,7 0,11 3,14 l 3,6 -1,2 5,-1 c 3,-1 5,-1 6,1 l 3,1 h 2 v -3 h 2 l 15,2 c 9,2 25,2 50,2 h 40 a 276,276 0 0 0 57,2 c 2,0 3,-1 3,-2 v -1 1 l 13,1 c 9,0 13,-1 13,-2 h 5 v -1 l 1,-2 v 2 l 1,2 4,-1 h 5 l 7,1 h 8 l -1,-1 -1,-1 h 2 l 2,2 6,2 c 3,0 6,-2 9,-4 l 7,-3 c 2,1 3,2 3,4 1,2 4,3 9,3 6,0 9,-1 10,-2 l 1,-1 v 1 c 0,1 2,2 6,2 4,1 8,0 13,-2 l 7,-2 v 2 l 1,2 c 2,1 3,0 3,-1 l 2,-2 1,1 7,2 6,-2 h 6 l 6,-1 h 3 v 3 l 21,-1 c 13,0 21,-1 21,-2 l 1,-1 1,1 h 24 c 7,0 12,-1 12,-2 1,-2 4,-2 8,-2 4,1 6,1 6,3 v 1 h 2 l 2,-3 1,-4 2,2 2,2 2,-2 19,-3 27,-1 h 8 v 3 a 1026,1026 0 0 1 6,-2 v -1 h 13 l 14,2 h 3 a 581,581 0 0 0 -5,3 l 4,1 h 4 l 1,-1 2,1 c 0,2 2,2 4,2 h 3 v -5 h 2 c 2,0 3,1 4,3 l 4,2 a 4352,4352 0 0 1 2,-2 l -3,-1 v -2 l 3,1 4,2 c 0,2 2,2 4,2 3,0 5,0 6,-2 l 4,-1 c 2,1 3,0 3,-1 l 1,-2 a 209,209 0 0 0 1,5 725,725 0 0 1 6,-2 v 2 a 67159,67159 0 0 1 45,0 l 13,1 v -3 l 2,1 h 12 c 7,-1 11,-2 11,-4 v -2 h 2 c 2,1 3,0 5,-1 1,-1 1,-4 -1,-9 l -3,-7 6,-1 5,-3 v -3 l -2,1 -2,2 v -2 h -6 l -7,-1 h -22 a 83,83 0 0 1 -28,-2 c -4,0 -7,0 -7,2 l -1,1 -2,-1 c -1,-2 -3,-2 -5,-1 h -39 c -20,1 -31,1 -33,-1 h -7 c -2,2 -8,2 -17,2 l -16,-1 c -2,-1 -5,-1 -7,1 l -17,1 h -21 l -10,-1 h -3 v 3 l -1,-2 h -20 v -2 h -6 l -8,1 h -3 l -12,-1 -11,1 -1,1 -1,-1 -10,-1 c -5,0 -8,1 -9,2 h -8 l -10,-2 -4,1 h -3 c -2,-1 -4,0 -6,1 l -3,2 v -4 h -35 a 223,223 0 0 0 -37,2 l -2,-1 c 0,-2 -5,-2 -14,-3 h -19 c -4,1 -7,1 -9,3 l -2,1 -2,-1 c 0,-2 -2,-2 -4,-1 l -7,1 c -3,-1 -6,0 -7,1 -2,2 -4,2 -6,1 -3,-1 -16,-2 -41,-1 -25,0 -38,1 -38,2 l -30,3 a 582,582 0 0 0 -54,6 l -1,1 v -6 l 1,-6 1,-1 -1,-1 -1,-35 v -75 l -1,-28 -1,-39 -1,-23 v -21 l -1,-13 v -21 l -1,-16 v -7 c 1,-4 1,-9 -1,-15 v -34 l -1,-29 v -19 l -1,-16 -1,-21 c 0,-6 -1,-9 -2,-10 v -5 c 1,-2 1,-8 -1,-16 -1,-8 -3,-13 -6,-13 -3,0 -7,1 -11,4 z m 354,52 -8,1 c -5,0 -8,1 -10,3 -2,2 -4,4 -8,5 -3,1 -4,2 -4,4 v 2 h -3 l -3,2 c 0,1 -2,3 -5,4 -3,2 -7,6 -13,14 -5,7 -9,12 -9,15 l -3,4 h -1 v 3 l -2,5 c -2,1 -3,3 -3,6 -1,3 -1,4 -3,5 l -4,8 -4,12 c 0,4 -1,7 -3,9 -2,2 -3,4 -2,6 l 1,3 h -2 v 9 h -5 l 1,7 -1,15 -3,10 -5,30 a 255,255 0 0 0 5,87 l 1,6 3,7 2,6 2,1 a 119,119 0 0 0 -3,2 l -2,-2 -2,-2 v 3 c 0,2 1,3 4,4 3,2 5,3 4,5 l 3,3 7,9 4,8 2,-2 6,3 c 2,3 6,5 10,6 5,0 9,2 12,4 4,2 10,3 19,3 9,0 15,-1 19,-3 l 6,-4 3,-1 c 1,1 3,0 4,-3 2,-2 4,-4 6,-4 l 4,-1 v 2 l -3,4 c -2,1 -3,2 -3,4 l 4,3 c 2,0 3,3 2,7 0,4 0,9 2,14 1,5 3,8 5,8 2,0 5,-2 7,-5 l 4,-5 6,5 7,5 -2,-3 -1,-17 v -13 h -2 l -1,9 c 0,6 -1,9 -2,9 l -1,1 v -2 l -1,-16 c 0,-9 1,-17 4,-25 l 3,-12 v 16 h 1 c 1,0 2,-3 2,-10 1,-6 1,-10 3,-12 l 3,-11 c 1,-7 2,-10 3,-10 1,-1 2,-4 2,-10 l 2,-10 h -6 v -3 c 0,-3 -2,-5 -5,-7 -3,-2 -5,-5 -5,-8 v -5 h -2 l -4,1 -2,5 c 0,2 -1,5 -4,9 -3,5 -5,9 -5,13 l -3,13 a 114,114 0 0 1 -28,37 c -2,0 -5,1 -7,3 -2,2 -7,2 -16,2 l -13,-3 c -1,-2 -3,-3 -8,-4 l -10,-3 -8,-9 c -3,-4 -5,-7 -5,-10 a 377,377 0 0 1 -5,-69 l 2,-26 3,-13 -3,3 c -1,1 -3,7 -3,16 -1,10 -2,14 -3,14 l -3,-1 3,-26 4,-25 4,-12 c 2,-8 3,-13 2,-16 l 2,-6 c 2,-2 3,-6 3,-10 0,-5 3,-11 7,-17 l 6,-13 c 0,-3 1,-5 3,-6 2,-1 3,-4 4,-8 1,-4 3,-6 5,-7 3,-1 4,-3 5,-5 1,-3 2,-5 4,-5 2,0 3,-1 4,-3 0,-2 1,-2 3,-2 1,0 3,-1 3,-3 l 6,-4 5,-3 v 7 h 2 c 2,0 3,-1 5,-3 2,-3 3,-4 5,-4 l 7,-1 12,3 c 4,2 6,4 7,6 1,2 3,3 5,2 a 1026,1026 0 0 1 2,2 v 2 h 4 v 3 c -1,1 0,3 2,6 1,3 3,5 4,5 2,1 3,2 2,3 l 1,3 c 2,1 2,3 3,5 l -1,18 -3,14 c -1,0 -2,1 -2,3 l -5,5 -4,3 v 2 a 1708,1708 0 0 1 12,-7 l 6,-11 4,-9 3,-1 1,1 v -4 h -6 l 1,-6 1,-7 h 2 v 5 l 2,-1 c 1,0 2,-3 0,-9 -1,-6 -3,-13 -8,-21 -4,-9 -7,-13 -8,-13 l -4,-5 -8,-11 c -4,-4 -8,-7 -12,-8 -4,-2 -7,-3 -8,-2 l -4,-1 c -1,-2 -3,-2 -6,-2 z m 186,-1 -4,1 a 209,209 0 0 0 1,5 l -1,-1 h -3 c -2,1 -4,2 -5,1 h -3 v 3 l -1,4 -2,-1 a 1356,1356 0 0 1 -3,2 c 0,2 -2,3 -5,3 -3,0 -5,1 -6,3 l -6,3 c -2,0 -4,1 -4,3 v 3 h -6 l 1,3 1,2 h -3 c -2,0 -5,2 -8,7 -3,4 -5,9 -4,15 l -1,15 c -2,3 -3,11 -3,26 l -3,22 v 10 a 1064,1064 0 0 1 -18,174 l -4,14 -4,-3 c -3,-2 -7,-2 -11,-2 l -7,1 5,11 c 4,7 9,13 13,17 l 9,10 c 0,2 1,3 3,3 l 4,4 c 2,3 4,4 5,4 l 7,5 c 4,3 7,5 11,6 3,1 5,2 6,4 v 3 a 9573,9573 0 0 0 -12,-3 c -1,-1 -3,-2 -4,-1 -2,0 -3,1 -3,2 l -1,2 11,3 c 7,3 13,4 18,3 5,0 9,-1 10,-3 l 4,-3 c 1,1 2,0 3,-1 l 6,-2 a 2413,2413 0 0 1 2,-2 l -1,-2 6,-1 c 3,0 6,-2 7,-5 2,-2 4,-4 6,-4 h 4 v -3 h 3 v -6 h 3 c 1,0 3,-1 5,-4 l 5,-3 c 1,1 3,-1 6,-5 2,-4 5,-6 7,-6 l 7,-5 4,-7 3,-3 c 2,0 4,-2 7,-5 4,-3 8,-11 13,-23 5,-12 7,-20 7,-24 l 1,-11 2,-7 h -1 c -1,0 -2,-6 -2,-19 0,-12 -1,-19 -2,-21 -2,-2 -2,-4 -3,-7 0,-3 -4,-10 -10,-19 l -12,-15 c -1,1 -3,-1 -6,-4 l -8,-7 c -4,-1 -6,-3 -6,-4 -1,-1 -2,-2 -4,-1 l -5,-1 c -1,-2 0,-4 2,-9 3,-4 5,-7 8,-8 l 4,-3 v -2 h 2 c 1,1 5,-4 13,-13 8,-9 12,-15 12,-17 l 3,-9 a 138,138 0 0 0 -4,-53 c -1,-6 -5,-11 -9,-17 l -9,-9 h -2 v -1 l -4,-4 -6,-2 c -1,1 -4,0 -9,-2 a 46,46 0 0 0 -22,-4 z m -196,6 2,2 1,1 a 725,725 0 0 0 -6,1 l 1,-2 z m 211,19 a 2320,2320 0 0 0 11,9 l 1,4 -2,-2 c -1,0 -2,-1 -2,-3 l -5,-4 -4,-2 v -1 z m -13,4 9,2 c 3,1 6,4 10,10 4,5 7,11 9,19 3,8 4,13 4,17 0,3 -1,6 -4,11 l -3,9 1,3 h -2 c -2,0 -3,1 -4,3 l -1,2 h 1 l 1,1 a 581,581 0 0 0 -5,4 v 2 l -2,-1 -3,-1 v 5 h -3 l -3,-1 v 9 l -2,-1 -3,1 -1,1 a 348,348 0 0 1 2,-6 h -1 l -2,2 c 0,2 -1,3 -2,3 l -2,3 v 2 l -3,-1 -3,-1 v 2 l 2,3 2,1 -4,-1 c -2,-1 -6,-1 -10,1 -4,2 -7,3 -8,5 l -1,2 -1,-1 -1,-1 v 3 h -2 l -2,-1 v 4 c -1,2 -2,4 -6,4 -3,1 -4,3 -4,7 v 6 l 2,-1 1,-4 v -3 h 2 c 1,0 4,1 7,4 4,3 5,6 4,8 0,2 -2,4 -4,5 -3,0 -4,1 -4,3 l 13,4 c 9,2 14,3 15,2 l 3,-1 -6,-4 -6,-3 h 10 c 7,1 11,2 12,4 2,2 3,2 5,2 l 2,-2 2,4 c 0,2 4,5 10,9 6,3 9,7 11,11 l 3,6 h 2 v 6 a 1223,1223 0 0 0 -5,-4 v -2 a 581,581 0 0 0 -5,3 c 0,1 1,3 4,5 l 3,6 c 0,2 1,3 3,4 1,0 2,2 1,4 l 2,16 c 2,8 2,15 1,22 -1,6 -3,12 -6,16 -2,3 -4,7 -4,11 l -4,8 -3,6 c 0,2 -2,4 -5,5 -2,2 -4,3 -4,5 l -4,2 h -3 l 1,1 -1,3 c -2,2 -3,2 -4,1 h -4 l -1,4 c 1,1 -1,3 -6,5 l -7,7 v 3 l -4,-1 c -3,-1 -5,-1 -7,1 l -3,4 -9,3 -8,1 v -2 h -5 v -4 h -3 c -2,0 -4,-2 -8,-5 -4,-4 -6,-7 -6,-9 0,-2 0,-5 2,-8 l 2,-5 1,5 c 0,4 1,6 2,7 h 3 l 1,-14 c 0,-9 -1,-14 -3,-15 -2,-1 -2,-3 -2,-4 v -3 h 1 l 2,-10 1,-15 c -1,-3 0,-6 1,-6 l 1,-13 -2,-11 h 3 v -5 h -3 v -4 l 2,-6 v -7 l -1,-15 c 0,-5 1,-8 2,-8 h 1 v -3 h -2 v -11 l 2,-15 c 2,-2 2,-11 2,-24 a 551,551 0 0 1 10,-84 l -1,9 c 0,2 1,3 2,3 h 1 l -1,-5 c 0,-3 0,-6 2,-11 1,-4 3,-7 6,-8 l 6,-4 c 1,-2 3,-3 7,-3 l 10,-4 z m -202,9 -3,3 v 3 a 725,725 0 0 1 6,-5 l 1,-1 z m -38,24 1,3 c 0,2 0,4 -2,7 l -3,6 -2,3 c -1,0 -3,3 -4,8 l -4,8 -2,1 8,-18 z m 197,21 c 0,9 -1,14 -2,16 v 5 l 2,2 c 1,0 2,-2 2,-5 l 1,-18 v -14 h -1 c -1,0 -2,5 -2,14 z m -501,9 h 2 l 2,4 -2,4 h -1 v -4 z m 300,9 a 578,578 0 0 0 2,1 l 2,-3 -1,-1 -2,-1 z m -11,-2 1,1 -3,9 -4,8 v -5 l 3,-9 z m 208,16 2,10 2,2 v -13 c 1,-1 1,-3 -1,-4 l -2,-3 z m -204,2 c -2,5 -3,10 -3,16 l -2,13 c -2,4 -3,8 -3,13 l -1,7 h 2 c 1,-1 2,-2 1,-4 l 1,-4 3,-14 3,-14 3,-7 2,-10 -2,-3 h -2 z m -13,2 1,1 c 2,0 2,2 2,5 l -2,9 c -2,4 -4,12 -5,26 -2,14 -4,22 -5,23 l -1,6 v 4 h -2 v 3 l 1,3 h -2 v -12 c 1,-7 1,-13 3,-15 l 6,-29 z m 218,18 -1,4 2,-1 1,-4 -1,-3 z m -410,20 -1,3 a 1813,1813 0 0 0 -5,-1 c -1,1 -2,4 -1,9 0,5 1,8 2,9 1,2 2,3 1,5 -1,1 -1,4 1,7 2,3 3,4 5,4 h 2 v -1 l 8,-6 c 5,-3 7,-7 6,-13 -1,-6 -2,-10 -5,-11 l -8,-5 -3,-4 z m 448,23 c 1,2 2,3 4,2 l 6,3 c 3,2 5,4 8,4 h 4 l -2,1 -1,1 1,1 1,1 1,-1 h 2 l 3,1 v 3 a 767,767 0 0 0 5,5 l -1,-1 -2,-4 v -1 a 1223,1223 0 0 1 4,1 l -1,-2 -5,-2 -10,-7 c -4,-4 -7,-6 -11,-6 l -6,-1 z m -536,5 a 2595,2595 0 0 1 5,4 v 2 h -1 l -3,-3 z m 275,17 1,4 1,9 -2,6 -2,-6 1,-10 z m 219,20 2,3 h 2 v -6 h -4 z m -219,3 a 3464,3464 0 0 0 1,14 c -2,-4 -2,-7 -2,-10 z m -6,5 2,5 2,14 1,9 -1,-7 c -1,-5 -2,-7 -3,-7 l -1,-8 z m -61,15 c -4,3 -6,6 -7,8 0,2 -2,4 -5,6 l -5,9 -5,7 c -2,1 -3,3 -3,5 0,2 -1,5 -4,9 -3,4 -6,10 -9,19 l -5,14 v -2 l -3,-4 c -2,-2 -3,-5 -4,-11 l -6,-17 -6,-16 c 0,-5 -1,-8 -2,-8 l -5,-10 c -2,-7 -4,-10 -6,-12 l -2,-1 -1,3 -6,5 -4,3 3,1 2,1 -1,2 -1,5 1,4 c 2,0 2,2 2,6 -1,3 0,6 2,7 2,1 3,3 2,5 l -1,4 h 3 v 2 l -1,2 h 2 c 1,0 2,3 2,8 0,5 2,9 4,12 2,3 2,5 1,6 l -1,3 h 4 l -1,2 -1,4 1,1 a 649,649 0 0 1 2,-1 l -1,6 c -1,4 -1,8 1,11 2,2 2,5 2,8 l 1,6 3,9 2,8 a 12306,12306 0 0 1 16,-1 c 2,2 3,3 2,4 v 3 h 2 l 3,-6 c 0,-4 1,-6 3,-6 l 4,-7 2,-12 v -6 h 1 l 4,-11 5,-12 8,-15 c 4,-9 7,-14 9,-15 l 5,-6 2,-6 v -1 h -1 c -2,0 -5,4 -11,13 -5,9 -8,13 -9,13 -1,-1 0,-4 2,-10 3,-6 6,-12 11,-17 5,-6 8,-9 8,-11 v -4 l -1,-2 -5,6 -11,18 -9,16 -3,3 v -4 l 7,-13 6,-11 c 0,-2 2,-5 6,-9 4,-5 6,-8 6,-12 1,-4 1,-6 3,-7 l 1,-4 v -3 h -1 c -2,0 -4,2 -9,6 z m 287,-3 1,5 1,2 v -5 l 1,-5 h -1 c -1,0 -2,1 -2,3 z m -403,13 -3,12 1,4 h -3 v 3 l 2,4 2,2 -1,1 v 4 l -1,4 -2,3 1,5 3,1 2,-1 v 17 l 1,19 1,8 1,13 1,5 -3,-2 c -1,0 -2,-2 -1,-4 l -1,-4 v -4 l 1,-2 h -1 c -1,0 -2,5 -2,14 l -2,13 a 33708,33708 0 0 1 21,-1 c 1,-1 0,-3 -1,-6 v -4 c 1,-1 2,-3 2,-7 a 127,127 0 0 0 -4,-25 v -13 c 0,-7 0,-16 -2,-27 v -30 c -1,-4 -3,-6 -5,-8 l -3,-1 z m 317,-4 h 2 a 578,578 0 0 0 -4,15 1780,1780 0 0 0 -1,-4 z m -408,8 1,3 3,3 h 1 l -1,3 -1,3 h -2 l -1,-6 z m 0,13 2,1 2,1 -1,3 -2,4 v -4 z m 90,10 h 2 v 4 l -1,4 -1,-4 z m -3,25 v 7 h 3 v -13 h -3 z m 100,-5 1,1 c 1,1 0,3 -1,8 l -4,6 h -1 l 2,-7 z m 167,5 1,1 -5,3 c -3,3 -8,4 -14,4 l -11,-1 -3,-3 v -1 l 2,1 12,1 c 7,0 11,-2 13,-4 2,-2 3,-2 5,-1 z m 44,10 v 9 l 2,-2 1,-8 v -7 h -1 z m -11,-6 2,1 1,11 -2,10 -1,-1 z m -386,29 3,1 2,5 v 2 l -2,-2 c -2,-1 -3,-2 -3,-4 z m 4,20 h 1 l 2,7 c 0,4 0,6 -2,6 l -2,1 v -7 z m 488,15 5,1 a 13675,13675 0 0 0 3,3 c 0,1 -1,2 -3,1 -2,0 -4,-1 -4,-3 z m -252,54 4,2 4,1 h -8 z m -40,2 v 1 l 1,1 a 725,725 0 0 0 -4,0 z m 335,99 -9,4 c -3,2 -5,4 -5,6 1,3 2,5 4,6 l 3,4 -5,24 -5,26 c 0,3 1,4 2,5 l 1,1 -3,2 -2,2 h 4 a 122,122 0 0 0 -2,3 l 3,1 3,3 c 1,2 8,1 20,-3 12,-3 19,-6 20,-7 1,-1 2,-6 2,-14 0,-8 -3,-15 -8,-19 l -7,-7 7,-1 12,-6 c 3,-3 5,-7 5,-11 l -2,-11 -7,-6 c -4,-2 -9,-2 -16,-2 z m 207,7 c -3,1 -6,7 -9,16 l -5,14 -3,-3 -9,-2 c -4,0 -9,1 -14,4 -5,3 -8,6 -8,7 l -3,5 c -3,2 -4,5 -4,9 l -2,5 c -1,0 -2,1 -2,3 l -1,6 c 0,2 1,4 3,5 1,2 5,3 11,3 6,1 11,-1 16,-6 l 7,-7 -2,10 -2,10 h 6 v 5 l 2,-1 12,-32 a 559,559 0 0 0 13,-48 v -6 h -1 z m -367,2 c -2,2 -5,9 -8,21 -4,12 -8,18 -11,19 l -8,-1 -1,-1 -8,9 c -5,7 -9,12 -9,15 v 10 c 0,3 3,5 8,5 5,0 9,-4 15,-10 l 7,-10 2,7 c 1,5 3,7 7,8 h 6 l 4,-9 v -9 l -5,1 -2,2 v -3 a 83,83 0 0 1 5,-25 l 3,-9 c -1,-1 0,-3 1,-3 1,-1 2,-4 2,-9 l -1,-8 c 0,-2 -1,-2 -2,-2 z m -147,4 c -5,1 -9,4 -13,7 l -12,7 c -5,2 -8,4 -9,6 l -2,4 v 2 l 1,-2 1,-1 a 81,81 0 0 0 1,3 l -3,1 c -3,1 -5,2 -7,5 l -6,13 -3,14 c 0,3 2,6 5,9 l 12,7 c 5,2 11,3 16,3 6,0 9,-1 10,-2 l 2,-2 3,5 c 2,3 6,5 12,7 6,2 9,3 10,2 l 1,-4 v -2 h -2 v -2 c 1,-2 0,-4 -3,-6 -2,-2 -3,-6 -3,-11 0,-5 -1,-10 -3,-14 l -3,-6 -3,3 c -2,2 -5,3 -8,3 -3,0 -5,2 -5,5 -1,3 -2,5 -4,6 -3,2 -6,2 -10,2 -5,0 -7,0 -9,-2 -1,-1 0,-6 3,-14 a 65,65 0 0 1 50,-40 c 5,0 7,1 8,3 v 2 h 3 l 3,-3 -2,-5 -5,-5 -11,-1 z m 315,-3 8,1 c 5,0 8,2 9,4 l 1,4 -10,3 -9,2 1,-7 z m -556,9 -5,15 a 333,333 0 0 0 -6,56 l -2,2 9,-2 c 6,-1 11,-3 14,-6 4,-3 7,-4 9,-3 l 7,-2 c 3,-2 7,-3 10,-3 l 6,-1 -1,-3 -1,-3 -2,1 -3,-1 -4,-4 -14,-2 h -10 l 2,-21 c 1,-14 0,-22 -3,-23 -3,-2 -5,-2 -6,0 z m 55,7 1,3 3,-1 3,-2 -4,-2 -5,-1 z m 612,14 -3,12 c 0,4 -2,7 -5,9 -2,2 -5,3 -6,2 -2,-1 -2,-4 -2,-8 0,-4 1,-7 3,-9 l 2,-6 v -3 l -6,1 c -4,0 -7,2 -9,5 l -2,13 1,11 3,3 4,5 c 2,2 4,4 7,3 h 5 l -2,8 c -1,6 -3,12 -6,16 l -5,7 h -1 v -1 l 3,-7 3,-5 -3,2 c -2,1 -4,4 -5,8 -1,5 -2,9 -1,12 0,4 2,8 6,12 3,4 6,6 7,5 2,0 3,-2 3,-4 l 3,-5 c 2,-2 3,-6 4,-13 1,-7 3,-11 4,-12 1,-1 2,-2 2,-5 l 6,-10 c 4,-4 7,-7 10,-8 2,-2 3,-3 3,-5 l 1,-2 1,-2 v -2 h -2 l -8,4 -5,4 v -2 l 1,-3 h -3 v -1 l 3,-6 2,-7 3,-12 c 2,-5 2,-8 0,-10 -2,-1 -4,0 -5,1 l -3,2 -2,-2 -2,-2 z m -333,1 c -5,2 -8,5 -10,8 -2,2 -4,4 -7,3 -3,0 -5,2 -6,7 v 15 l 1,7 5,-3 c 4,-2 6,-4 7,-6 0,-3 3,-6 9,-11 l 7,-9 c 0,-1 1,-3 4,-5 l 3,-5 v -1 l -3,1 h -4 a 181,181 0 0 1 3,-3 l -2,-1 z m 265,1 -9,11 -4,13 1,10 3,6 5,1 11,-4 c 5,-3 10,-9 14,-16 l 8,-14 c 0,-3 -1,-5 -3,-7 l -12,-3 c -6,0 -10,1 -14,3 z m -145,2 c -3,3 -5,4 -8,3 l -3,-1 v 4 l -4,13 c -3,6 -4,10 -4,13 l 1,4 a 767,767 0 0 1 8,-2 c 2,0 3,-1 5,-4 l 3,-5 2,3 c 1,2 3,3 5,3 l 3,-2 v -1 h 3 l 4,1 1,-12 c 1,-8 0,-13 -3,-16 -3,-4 -5,-5 -6,-5 -2,0 -4,1 -7,4 z m 192,-4 a 308,308 0 0 0 1,6 h -5 l 2,-3 z m 84,3 h 4 v 4 l -9,12 c -6,6 -10,10 -13,10 l -5,1 v -5 c 0,-4 2,-8 4,-12 3,-4 6,-7 9,-8 3,-2 6,-3 10,-2 z m -654,6 1,7 v 5 l -1,2 h 2 l 1,-1 2,4 v 9 l -2,5 9,-1 c 6,0 11,-5 14,-16 3,-10 3,-16 0,-17 -2,-2 -5,-3 -7,-3 -2,0 -4,2 -6,4 l -4,3 -1,-2 c -1,-2 -2,-3 -4,-3 l -3,-2 z m 125,-3 h 1 v 2 l -3,5 -3,2 2,-5 z m 352,0 a 767,767 0 0 0 7,7 l 2,7 c 0,3 -2,5 -6,6 l -6,2 a 4259,4259 0 0 1 3,-22 z m -151,9 c -4,6 -7,11 -7,17 l 1,10 10,1 c 5,-1 9,-2 13,-5 l 6,-9 c 0,-2 1,-4 3,-5 2,-1 3,-3 2,-7 l -5,-7 -10,-3 c -4,0 -9,3 -13,8 z m -117,-5 -4,2 c -1,0 -4,2 -8,7 -4,4 -6,9 -7,12 0,4 1,7 3,11 l 3,5 6,-4 a 45,45 0 0 0 19,-20 c 1,-3 3,-5 4,-5 l 1,-1 a 1038,1038 0 0 1 -4,-9 l -1,1 h -6 c -3,-1 -5,0 -6,1 z m -232,3 -3,4 c -2,1 -3,3 -3,6 l -1,9 c 0,3 1,5 2,5 1,0 2,1 2,3 v 2 l 4,-4 c 3,-3 5,-7 6,-12 1,-6 2,-10 1,-12 0,-2 -2,-4 -4,-4 -2,0 -4,1 -4,3 z m 306,1 h 5 a 181,181 0 0 0 -3,3 h 6 l -6,8 -7,7 2,-5 v -6 l -2,-1 h 3 v -4 l 1,1 h 1 z m 129,1 c -3,0 -4,1 -6,4 l -1,3 h 23 l -1,-4 c -1,-3 -3,-4 -6,-4 z m -73,0 h 2 v 1 l -4,6 -4,5 2,-6 z m -267,90 -8,2 1,4 c 1,2 3,4 7,4 4,1 5,11 4,31 -1,19 -3,29 -5,30 -2,0 -3,1 -3,2 v 1 h 6 -2 l -5,4 -3,3 10,1 c 6,0 12,0 16,-2 l 7,-3 -4,-2 -5,-1 2,-2 1,-1 -2,-1 c -1,0 -2,-4 -2,-12 l -1,-13 c -1,-1 0,-4 1,-10 2,-5 3,-11 3,-17 v -9 h 3 l 6,-3 2,-3 -3,-1 c -2,-2 -5,-2 -10,-3 z m 32,8 c -2,3 -3,8 -4,14 a 352,352 0 0 0 -2,56 l 6,4 c 3,1 5,0 7,-3 l 2,-7 -1,-4 -1,-1 1,-2 1,-3 h -3 v -9 l 1,-12 c 2,-2 2,-8 2,-18 l -1,-17 c -1,-2 -2,-3 -4,-3 -1,0 -3,2 -4,5 z m 196,2 c 0,3 -2,9 -6,16 l -6,13 c 1,2 0,3 -3,5 -2,2 -3,3 -2,4 v 1 l 2,-2 2,-2 -3,6 -2,5 -1,-2 v -2 l -3,2 -2,2 a 3371,3371 0 0 1 1,-20 l -4,2 -5,-1 -6,-2 c -3,0 -6,0 -9,-2 l -14,-1 c -6,0 -10,0 -12,2 -2,2 -4,2 -6,1 -2,-1 -4,0 -5,1 l -6,2 h -4 l 2,-1 1,-7 2,-13 c 2,-4 1,-7 -2,-9 l -4,-2 -3,16 c -3,11 -5,18 -9,21 l -4,6 v 2 l 3,-2 3,-1 a 4659,4659 0 0 0 -2,37 l 5,-3 c 3,-1 5,-6 5,-14 l 3,-17 c 2,-3 4,-4 5,-4 h 2 l -1,3 -3,11 c 0,5 1,9 4,11 l 6,4 5,-10 c 2,-6 6,-12 10,-15 l 7,-6 v 10 c 0,6 1,12 3,16 3,4 5,5 8,4 4,0 6,-2 7,-5 2,-3 4,-4 6,-3 2,1 3,2 4,5 1,2 2,4 5,4 2,0 5,-1 7,-3 3,-2 4,-4 4,-5 0,-2 2,-4 5,-7 l 4,-6 3,3 c 3,2 4,4 4,6 l 1,2 4,-4 c 2,-3 3,-7 3,-11 0,-4 3,-7 9,-8 l 10,-2 v 2 l -2,6 c -2,2 -3,4 -2,7 v 4 a 65,65 0 0 1 -1,-2 h -1 l -2,4 c 0,3 1,4 4,6 l 5,1 a 4644,4644 0 0 1 8,-25 l -3,-6 c -2,-2 -4,-3 -6,-2 l -5,-1 c -1,-2 -3,-2 -7,-2 l -6,1 3,-14 v -14 c -2,-1 -4,-1 -5,1 l -2,2 -3,-2 -2,-2 z m 49,8 -2,2 4,3 4,3 1,-4 c 0,-3 -1,-5 -3,-5 z m -182,10 -8,5 c -3,3 -5,6 -5,8 l -2,2 -2,-3 -1,-4 -5,3 c -2,2 -4,3 -5,1 l -2,-2 a 3371,3371 0 0 0 -4,23 l -2,3 -1,-3 v -2 h -1 l -2,1 v -15 h -1 c -2,0 -3,2 -3,8 -1,5 -3,9 -5,11 -1,1 -2,3 -1,5 0,3 2,5 4,8 l 8,4 c 2,0 4,-1 6,-4 2,-4 4,-5 5,-5 1,0 3,1 5,5 2,3 5,4 7,4 1,0 4,-3 7,-10 2,-7 4,-11 3,-12 v -1 h 1 l 2,5 v 5 h -1 l -3,4 -2,5 6,-1 8,1 2,2 2,-4 3,-13 -1,-13 c -2,-2 -3,-4 -6,-4 l -3,-2 1,-2 c 1,-1 2,-3 5,-3 2,-1 3,-3 3,-6 -1,-3 -2,-5 -4,-6 z m 244,7 -14,6 -10,2 4,1 4,1 -6,10 c -4,6 -5,12 -3,16 l 2,6 10,-14 14,-16 4,-2 h 2 l -1,15 c 0,10 0,16 2,16 l 3,1 v 2 l -1,2 4,-3 6,-8 2,-20 -1,-17 -9,-1 c -5,0 -9,1 -12,3 z m -240,0 -1,3 -2,2 h -2 l 3,-2 z m 181,6 c -4,3 -6,7 -6,11 l -1,12 c 0,3 2,6 5,10 3,3 5,5 7,4 3,0 6,-2 10,-4 4,-3 8,-8 12,-14 5,-6 7,-10 7,-12 0,-2 -2,-4 -4,-6 l -15,-4 c -7,-1 -12,0 -15,3 z m -95,4 h 1 l 1,1 -2,2 -2,3 1,-3 z m 109,0 4,1 -3,4 -4,5 c 0,2 0,4 -2,6 l -2,3 v -7 l 1,-9 c 2,-2 3,-3 6,-3 z m -215,4 4,3 c 3,2 3,5 2,7 l -3,5 -1,-2 -2,-7 z"
   id="path1" />
  </g>
</svg>
