<svg xmlns="http://www.w3.org/2000/svg" version="1.1" xmlns:xlink="http://www.w3.org/1999/xlink" xmlns:svgjs="http://svgjs.com/svgjs" width="716.25997" height="493.60048"><svg xmlns="http://www.w3.org/2000/svg" width="716.25997" height="493.60048" viewBox="0 0 189.51045 130.59846">
  <path d="M12.56242 84.39441c-1.14485.83238-1.92537 2.86174-2.34156 6.08806-.41619 3.22607-.62441 7.9092-.62441 14.04938 0 6.13992.10398 9.47023.3122 9.99067.20823.52017.20823 1.09272 0 1.71714-.20822.62442-.3122 2.80988-.3122 6.55638v5.61975h.62441c-.05212 4.83923-.10398 9.67845-.1561 14.51768-.10398 9.67846-.05212 14.72565.1561 15.14211.20823.41619.20823 1.14459 0 2.18546-.20822 1.0406-.20822 1.66502 0 1.87325.20823.20796.26009 2.49766.1561 6.86858-.10397 4.37092-.05211 6.76434.15611 7.18079.20823.41619.20823 1.24883 0 2.49767-.20823 1.24883-.1561 2.49766.1561 3.7465.31221 1.24883.36434 2.65377.15611 4.21481-.20823 1.56104-.20823 2.44554 0 2.65377.20823.20796.36433 3.85048.46831 10.92729.05212 3.53828.10398 7.07655.1561 10.61509h2.18546c-.05212-.46832-.10398-.93663-.1561-1.40494-.10398-.93663-.05212-1.50919.1561-1.71715.10399-.10424.20823-.20822.31221-.31221h-.62441v-.46831c0-.31221.10398-.52043.3122-.62442.20823-.10424.31221-.52043.31221-1.24883 0-.72866-.1561-1.19697-.46831-1.40494-.3122-.20822-.41619-.57255-.3122-1.09273.05211-.26035.10397-.52043.1561-.78052.20822.41619.41619.83238.62441 1.24884.4162.83238.52044 2.13333.31221 3.9026-.20823 1.76901 0 2.96598.62442 3.5904.62441.62441.8845 1.14458.78052 1.56104-.05212.20796-.10398.41619-.1561.62442.41618-.10425.83264-.20823 1.24883-.31221.83264-.20823 1.35281-.15611 1.56104.1561.20823.31221.52043.46831.93662.46831h.62442v-.93662h.46831c.31221 0 1.61317.20796 3.90261.62442 2.28944.41618 6.66036.57229 13.11275.46831 6.4524-.10425 10.04279-.0521 10.77119.1561.7284.20796 3.27818.36407 7.6491.46831 4.37092.10399 6.81567.10399 7.3369 0 .52123-.10424.78052-.26035.78052-.46831v-.31221c.05292.10398.10319.20797.1561.31221.10319.20796 1.24884.26009 3.4343.15611 2.18545-.10425 3.3311-.26035 3.43429-.46832.10318-.20822.3122-.26035.62441-.1561.1561.0519.31221.10398.46831.1561.05292-.1561.1032-.3122.1561-.46831.05293-.1561.1032-.31221.15611-.46831.05292.20796.1032.41619.1561.62442.05293.20796.1032.41618.15611.62441.36513-.10424.7276-.20823 1.09273-.31221.7276-.20822 1.14565-.20822 1.24883 0 .1032.20797.78052.31221 2.02936.31221h1.87325c-.05292-.10424-.10319-.20823-.1561-.31221-.05293-.10424-.1032-.20822-.15611-.3122h.3122c.20903 0 .46832.1561.78053.46831.3122.31221.83344.46831 1.56104.46831s1.50812-.31221 2.34156-.93662c.83344-.62442 1.45786-.88477 1.87325-.78053.4154.10399.67734.41619.78052.93663.1032.52017.88371.78052 2.34157.78052 1.45785 0 2.28864-.10425 2.49766-.31221.10319-.10424.20902-.20823.31221-.31221v.31221c0 .20796.52123.36407 1.56104.46831 1.03981.10399 2.18546-.0521 3.4343-.46831a5080.16483 5080.16483 0 0 1 1.87324-.62441v.46831c0 .31221.1561.52017.46832.62441.3122.10399.5715 0 .78052-.3122.10318-.15611.20902-.31221.3122-.46832.15611.10398.31221.20797.46832.31221.31221.20796.88371.31221 1.71714.31221.83344 0 1.35203-.10425 1.56105-.31221.20902-.20823.46831-.20823.78052 0 .31221.20796.62442.20796.93662 0 .31221-.20823.78053-.31221 1.40494-.31221h.93663v.62442c1.82033-.0521 3.64331-.10425 5.46364-.1561 3.64332-.10425 5.51657-.26035 5.61975-.46832.0529-.10424.10319-.20822.15611-.3122.1561.10398.31221.20796.46831.3122.31221.20797.93662.20797 1.87325 0 .93662-.20822 2.39448-.26035 4.37092-.1561 1.97643.10398 3.06916-.0521 3.27818-.46831.20902-.41646.88371-.57256 2.02936-.46832 1.14564.10399 1.71714.31221 1.71714.62442v.46831h.31221c.20902 0 .4154-.3122.62442-.93662.10319-.31221.20902-.62442.31221-.93663l.46831.46832.46831.46831.46831-.46831c.31221-.31221 2.02936-.57256 5.15144-.78052 3.12208-.20823 5.46365-.31221 7.02469-.31221h2.34156v.93662c.25929-.0521.52123-.10424.78052-.1561.52123-.10425.78052-.26035.78052-.46831v-.31221c1.09273.0519 2.18546.10398 3.27819.1561 2.18546.10398 3.48721.20796 3.9026.31221.20903.0519.4154.10398.62441.1561-.20901.0519-.41538.10399-.62441.15611-.41539.10398-.62441.26008-.62441.46831 0 .20796.31221.36407.93662.46831.62441.10398 1.03981.0519 1.24883-.1561.10319-.10425.20902-.20823.31221-.31221.10318.1561.20902.31221.3122.46831.20903.31221.5715.46832 1.09273.46832h.78052v-1.24884h.62442c.4154 0 .72761.20796.93663.62442.20902.41619.62441.57229 1.24883.46831.31221-.0521.62442-.10424.93662-.1561-.20902-.0521-.41539-.10425-.62441-.15611-.4154-.10424-.62442-.26035-.62442-.46831v-.31221c.25929.0519.52123.10398.78052.15611.52123.10398.83344.3122.93663.62441.10318.31221.52123.46832 1.24883.46832.7276 0 1.24883-.15611 1.56104-.46832.31221-.31221.67734-.41645 1.09273-.31221.4154.10399.67733 0 .78052-.3122.0529-.15611.10319-.31221.15611-.46832.0529.20797.10318.41619.1561.62442.0529.20796.10319.41619.1561.62442.2593-.10425.52123-.20823.78053-.31221.25929-.10425.52122-.20823.78052-.31221v.62442c1.45785-.0521 2.91306-.10425 4.37091-.15611 2.91307-.10424 5.46365-.0521 7.64911.15611 1.09273.10398 2.18546.20796 3.27818.31221v-.93663c.15611.10398.31221.20796.46832.31221.31221.20796 1.40493.20796 3.27818 0 1.87325-.20823 2.80988-.52044 2.80988-.93663v-.62441c.20902.0519.4154.10398.62442.1561.41539.10398.83343 0 1.24883-.31221.4154-.31221.36512-1.09273-.1561-2.34156-.2593-.62442-.52123-1.24883-.78053-1.87325.46832-.10425.93663-.20823 1.40494-.31221.93663-.20822 1.40494-.52043 1.40494-.93662v-.62442c-.1561.10398-.31221.20796-.46831.31221a470.05362 470.05362 0 0 0-.46832.31221c-.0529-.10425-.10318-.20823-.1561-.31221-.10319-.20823-.5715-.26035-1.40494-.15611-.83343.10399-1.45785.0519-1.87325-.1561-.41539-.20823-2.34156-.26035-5.77585-.1561-3.43429.10398-5.30754.0519-5.61975-.15611-.31221-.20822-.98954-.31221-2.02936-.31221-1.03981 0-1.61395.15611-1.71714.46832-.0529.1561-.10319.3122-.15611.46831-.20902-.15611-.41539-.31221-.62441-.46831-.4154-.31221-.88371-.36433-1.40494-.15611-.52123.20796-1.03981.20796-1.56104 0-.52123-.20822-3.43429-.20822-8.74183 0-5.30755.20796-8.2206.15611-8.74183-.1561-.52123-.31221-1.09273-.31221-1.71715 0-.62441.31221-2.13254.46831-4.52702.46831s-3.84968-.10425-4.37091-.31221c-.52123-.20822-1.14565-.1561-1.87325.15611-.72761.3122-2.18546.41619-4.37092.3122-2.18546-.10424-3.3311-.0521-3.43429.15611-.10319.20796-.78052.20796-2.02936 0-1.24883-.20823-2.13254-.31221-2.65377-.31221h-.78052v.62442c-.10318-.10425-.20902-.20823-.31221-.31221-.20902-.20823-1.14564-.26035-2.80987-.15611-.83344.0519-1.66423.10399-2.49767.15611v-.62442h-1.71714c-1.14565 0-1.82034.10398-2.02936.31221-.20902.20796-.46831.20796-.78052 0-.31221-.20823-1.35202-.31221-3.12208-.31221s-2.75696.10398-2.96598.31221c-.10319.10398-.20902.20796-.31221.31221-.10319-.10425-.20902-.20823-.31221-.31221-.20902-.20823-1.03981-.31221-2.49766-.31221-1.45786 0-2.28865.15611-2.49767.46831-.20902.31221-.88371.31221-2.02935 0-1.14565-.3122-2.02936-.46831-2.65377-.46831-.62442 0-.98955.10398-1.09273.31221-.10319.20796-.4154.20796-.93663 0-.52123-.20823-1.03981-.1561-1.56104.1561-.25929.15611-.52123.31221-.78052.46832v-.93663h-9.21015c-6.14098 0-9.31333.10398-9.52235.31221-.1032.10398-.20903.20796-.31221.31221-.10319-.15611-.20902-.31221-.31221-.46831-.20902-.31221-1.45786-.52044-3.7465-.62442-2.28865-.10425-4.0058-.10425-5.15144 0-1.14564.10398-1.92616.31221-2.34156.62442-.20902.1561-.4154.3122-.62442.46831-.10318-.15611-.20902-.31221-.3122-.46831-.20903-.31221-.5715-.36433-1.09273-.15611-.52123.20796-1.19592.26009-2.02936.15611-.83344-.10425-1.45785.0519-1.87325.46831-.4154.41619-.93662.46831-1.56104.1561s-4.21481-.41645-10.77119-.31221c-6.55637.10399-9.93854.26009-10.14677.46832-.20823.20796-2.80987.46831-7.8052.78052-4.99534.31221-8.58574.62441-10.7712.93662-2.18545.31221-3.38216.5723-3.59039.78052-.10398.10399-.20823.20797-.31221.31221v-1.56104c0-1.04087.10398-1.61316.31221-1.71715.10398-.0521.20823-.10424.3122-.1561-.10397-.10425-.20822-.20823-.3122-.31221-.20823-.20822-.26009-3.27819-.1561-9.21014.10397-5.93196.05211-9.41838-.15611-10.45898-.20823-1.04087-.20823-2.862 0-5.46365.20823-2.60191.20823-3.95473 0-4.05871-.20823-.10424-.26009-2.54979-.1561-7.33689.10398-4.78737 0-8.22166-.31221-10.30288-.31221-2.08147-.36433-4.11083-.1561-6.08806.20822-1.9775.20822-3.07022 0-3.27819-.20823-.20822-.2601-.93662-.15611-2.18546.10398-1.24883.05212-2.39368-.1561-3.43429-.20823-1.04087-.2601-2.91412-.15611-5.61975.10398-2.70589.05212-4.11083-.1561-4.21481-.20823-.10425-.20823-.72866 0-1.87325.20822-1.14485.1561-2.44581-.1561-3.9026-.31222-1.45706-.36434-2.44581-.15611-2.96598.20822-.52044.20822-.98875 0-1.40494-.20823-.41645-.20823-.78052 0-1.09273.20822-.31221.20822-1.56104 0-3.7465-.20823-2.18546-.26009-4.68312-.1561-7.493.10397-2.80987.05211-4.47516-.15611-4.99533-.20823-.52044-.26009-1.92538-.1561-4.21481.10398-2.2897.05211-4.21482-.1561-5.77586-.20824-1.56104-.4162-2.39368-.62443-2.49767-.20822-.10424-.20822-.52043 0-1.24883.20823-.72866.1561-2.18546-.1561-4.37092-.3122-2.18545-.8845-3.3303-1.71715-3.43429-.83264-.10424-1.82112.26009-2.96598 1.09273zm93.66251 13.73717c-.10319.20796-.78052.3122-2.02936.3122-1.24883 0-2.13254.2601-2.65377.78053-.52123.52017-1.19591.93662-2.02935 1.24883-.83344.31221-1.24884.67628-1.24884 1.09273v.62442h-.62441c-.4154 0-.67734.1561-.78052.46831-.1032.31221-.5715.67627-1.40494 1.09273-.83344.41619-1.97644 1.6129-3.4343 3.59039-1.45785 1.97724-2.28864 3.33005-2.49766 4.05871-.20902.7284-.4154 1.09273-.62442 1.09273h-.3122v.78052c0 .52017-.20902.93663-.62442 1.24884-.4154.3122-.67733.83237-.78052 1.56104-.10319.7284-.31221 1.19671-.62442 1.40493-.3122.20797-.7276.88451-1.24883 2.02936-.52123 1.14459-.83344 2.23732-.93663 3.27819-.10318 1.0406-.4154 1.82112-.93662 2.34156-.52123.52017-.67733 1.04061-.46831 1.56104.10318.26009.20902.52017.3122.78052h-.62441v2.49767h-1.24883c.05292.57229.10318 1.14459.1561 1.71714.10319 1.14459.05292 2.44555-.1561 3.90261-.20903 1.45679-.46832 2.39342-.78053 2.80987-.3122.41619-.7276 3.06996-1.24883 7.96132-.52123 4.89108-.52123 9.73031 0 14.51768.52123 4.78711.8837 7.23265 1.09273 7.3369.20902.10398.2593.46831.1561 1.09273-.10318.62441 0 1.14459.31221 1.56104.31221.41619.52123 1.04061.62442 1.87325.10319.83238.3122 1.35281.62442 1.56104.1561.10398.3122.20796.4683.31221-.10318.10398-.20901.20796-.3122.31221-.10319.10398-.20902.20796-.3122.31221-.20903-.20823-.4154-.41646-.62442-.62442-.20903-.20823-.4154-.41645-.62442-.62442v.78052c0 .52017.4154.93663 1.24883 1.24884.83344.31221 1.19592.67627 1.09273 1.09273-.10319.41619.10319.72839.62442.93662.52123.20796 1.14564.98848 1.87325 2.34156.36512.67628.7276 1.35282 1.09273 2.02936a470.032 470.032 0 0 1 .4683-.31221c.31222-.20823.83345.0519 1.56105.78052.7276.7284 1.66423 1.19671 2.80988 1.40494 1.14564.20796 2.18545.57229 3.12208 1.09273.93662.52017 2.60085.78052 4.99533.78052s4.05871-.20823 4.99534-.62442c.93662-.41645 1.45785-.78052 1.56104-1.09273.10319-.31221.36512-.41645.78052-.31221.4154.10398.83344-.1561 1.24883-.78052.4154-.62441.93663-.98875 1.56105-1.09273.3122-.0521.62441-.10424.93662-.1561v.46831c0 .31221-.25929.62442-.78052.93663-.52123.3122-.78052.67627-.78052 1.09273 0 .41619.31221.67627.93662.78052.62442.10398.88371.72839.78052 1.87325-.10318 1.14458 0 2.39342.31221 3.7465.31221 1.35281.78052 2.02935 1.40494 2.02935.62442 0 1.24883-.41645 1.87325-1.24883.31221-.41646.62442-.83265.93663-1.24884.5715.41619 1.14564.83238 1.71714 1.24884.5715.41619 1.14565.83238 1.71715 1.24883-.10319-.26035-.20902-.52043-.31221-.78052-.20902-.52044-.31221-1.9775-.31221-4.37092v-3.59039a389.1853 389.1853 0 0 0-.46831.1561c-.31221.10398-.46831.8845-.46831 2.34156 0 1.4568-.10319 2.23732-.31221 2.34157-.10319.0519-.20902.10398-.31221.1561-.0529-.1561-.10319-.31221-.15611-.46831-.10318-.31221-.1561-1.66529-.1561-4.05871 0-2.39369.31221-4.63127.93663-6.71248.3122-1.04087.62441-2.08148.93662-3.12208v4.05871h.31221c.20902 0 .36512-.83265.46831-2.49767.10319-1.66529.31221-2.70589.62442-3.12208.31221-.41646.62441-1.45706.93662-3.12209.31221-1.66528.5715-2.54979.78052-2.65377.20902-.10424.4154-.98875.62442-2.65377.10319-.83264.20902-1.66529.31221-2.49767h-1.56104v-.93662c0-.62442-.4154-1.19698-1.24884-1.71715-.83343-.52043-1.24883-1.24883-1.24883-2.18545v-1.40494h-.62442c-.41539 0-.78052.1561-1.09273.46831-.3122.31221-.46831.7284-.46831 1.24883 0 .52017-.36512 1.35282-1.09273 2.49767-.7276 1.14459-1.14564 2.23732-1.24883 3.27819-.10319 1.0406-.4154 2.23731-.93663 3.59039-.52122 1.35282-1.66422 3.27819-3.43429 5.77586-1.77006 2.49766-3.01889 3.79836-3.7465 3.9026-.7276.10398-1.35202.36407-1.87325.78052-.52123.41619-1.92617.5723-4.21481.46832-2.28865-.10425-3.48721-.36434-3.5904-.78053-.10319-.41645-.78052-.72866-2.02935-.93662-1.24884-.20823-2.13254-.52044-2.65377-.93663-.52123-.41645-1.19592-1.14485-2.02936-2.18545-.83343-1.04087-1.35202-1.9775-1.56104-2.80988-.20902-.83264-.5715-3.43429-1.09273-7.80521-.52123-4.37091-.67733-6.6085-.46831-6.71248.20902-.10424.3122-1.35308.3122-3.7465 0-2.39368.20903-4.68312.62443-6.86858.20902-1.09273.41539-2.18546.62441-3.27819-.20902.20797-.4154.41619-.62441.62442-.4154.41619-.72761 1.87325-.93663 4.37092-.20902 2.49766-.46831 3.7465-.78052 3.7465s-.52123-.15611-.62442-.46832c-.10318-.3122.10319-2.60191.62442-6.86858.52123-4.26693.8837-6.45239 1.09273-6.55637.20902-.10425.5715-1.19698 1.09273-3.27819.52123-2.08148.7276-3.43429.62441-4.05871-.10318-.62442.05292-1.19698.46832-1.71715.4154-.52043.67733-1.40493.78052-2.65377.10319-1.24883.67733-2.70589 1.71714-4.37091 1.03982-1.66529 1.61396-2.862 1.71715-3.5904.10319-.72866.36512-1.24883.78052-1.56104.4154-.31221.78052-.98875 1.09273-2.02936.3122-1.04087.78052-1.66528 1.40494-1.87324.62441-.20823 1.0398-.67654 1.24883-1.40494.20902-.72866.5715-1.14485 1.09273-1.24884.52123-.10424.83344-.36433.93662-.78052.1032-.41645.36513-.62441.78052-.62441.4154 0 .72761-.20823.93663-.62442.20902-.41645.7276-.83264 1.56104-1.24883.4154-.20823.83344-.41646 1.24883-.62442v1.87325h.62442c.4154 0 .83344-.31221 1.24884-.93662.41539-.62442.83343-.98875 1.24883-1.09273.4154-.10425 1.09273-.15611 2.02935-.15611.93663 0 1.92617.26009 2.96598.78052 1.03982.52017 1.71715 1.04061 2.02936 1.56104.31221.52018.7276.7284 1.24883.62442.25929-.0521.52123-.10424.78052-.1561-.0529.20796-.10319.41619-.1561.62441-.0529.20797-.10319.41619-.15611.62442h1.24884c-.0529.20796-.10319.41619-.15611.62442-.10318.41619.0529.98848.46832 1.71714.41539.7284.83343 1.19671 1.24883 1.40494.41539.20796.5715.46831.46831.78052s0 .57229.31221.78052c.31221.20796.52123.62442.62442 1.24883.10318.62442 0 2.18546-.31221 4.68313-.31221 2.49767-.5715 3.7465-.78052 3.7465-.20902 0-.36513.26009-.46832.78052-.10318.52017-.52122.93663-1.24883 1.24883-.7276.31221-1.09273.62442-1.09273.93663v.46831c.36513-.1561.72761-.31221 1.09273-.46831.72761-.31221 1.40494-.78052 2.02936-1.40494.62441-.62442 1.14564-1.56104 1.56104-2.80987.41539-1.24884.78052-2.02936 1.09273-2.34157.3122-.3122.5715-.41645.78052-.3122.10318.0519.20902.10398.31221.1561v-.93663h-1.56105c.0529-.57255.10319-1.14485.15611-1.71714.10319-1.14485.25929-1.71715.46831-1.71715h.31221v1.24884c.20902-.0521.41539-.10425.62442-.15611.41539-.10424.46831-.93662.1561-2.49766-.31221-1.56105-1.03981-3.4343-2.18546-5.61975-1.14564-2.18546-1.87325-3.33031-2.18546-3.4343-.31221-.10424-.62441-.52043-.93662-1.24883-.31221-.72866-1.03981-1.66529-2.18546-2.80987-1.14565-1.14486-2.23838-1.92538-3.27819-2.34157-1.03981-.41645-1.77006-.57256-2.18546-.4683-.41539.10397-.7276 0-.93662-.31222-.20902-.3122-.72761-.46831-1.56104-.46831-.83344 0-1.30175.10398-1.40494.3122zm49.17281-.1561c-.31221.05185-.62442.10398-.93662.1561.0529.20796.10318.41619.1561.62442.0529.20796.10319.41618.1561.62441-.10318-.10424-.20902-.20823-.3122-.3122-.20902-.20823-.52123-.15611-.93663.1561-.41539.3122-.83344.41619-1.24883.3122-.20902-.05211-.4154-.10424-.62442-.1561-.0529.31221-.10319.62442-.1561.93663-.0529.31221-.10319.62441-.15611.93662-.20902-.0521-.41539-.10424-.62441-.1561-.20902-.0521-.4154-.10425-.62442-.15611-.0529.20797-.10319.41619-.1561.62442-.10319.41619-.5715.67628-1.40494.78052-.83344.10398-1.35202.36407-1.56104.78052-.20902.41619-.67734.67628-1.40494.78052-.72761.10398-1.09273.41619-1.09273.93663v.78052h-1.56104c.0529.20796.10319.41619.1561.62442.0529.20796.10319.41618.15611.62441h-.78052c-.52123 0-1.19592.5723-2.02936 1.71715-.83344 1.14459-1.19592 2.54952-1.09273 4.21481.10319 1.66502 0 2.91386-.31221 3.7465-.3122.83238-.5715 3.12208-.78052 6.86858-.20902 3.7465-.41539 5.72373-.62441 5.93196-.20902.20796-.2593 1.09273-.15611 2.65377.10319 1.56104-.25929 8.01317-1.09273 19.35692-.83343 11.34348-1.40493 17.22332-1.71714 17.63977-.31221.41619-.52123 1.40494-.62442 2.96598s-.52123 3.59039-1.24883 6.08806c-.36513 1.24883-.72761 2.49767-1.09273 3.7465-.36513-.26035-.72761-.52043-1.09273-.78052-.72761-.52044-1.71715-.72866-2.96598-.62442-.62442.0519-1.24883.10398-1.87325.15611.52123.98848 1.03981 1.97723 1.56104 2.96598 1.03981 1.97723 2.18546 3.53827 3.43429 4.68312 1.24884 1.14459 1.97644 1.97723 2.18546 2.49767.20902.52017.46831.78052.78052.78052s.72761.36407 1.24884 1.09273c.52122.7284.93662 1.09273 1.24883 1.09273.31221 0 .93662.41619 1.87325 1.24883.93662.83238 1.87325 1.35282 2.80987 1.56104.93663.20796 1.45786.5723 1.56105 1.09273.0529.26009.10318.52017.1561.78052-.46831-.0521-.93663-.10424-1.40494-.1561-.93662-.10425-1.56104-.31221-1.87325-.62442-.31221-.31221-.67733-.41645-1.09273-.31221-.41539.10398-.67733.31221-.78052.62442-.0529.1561-.10319.31221-.1561.46831l2.80987.93663c1.87325.62441 3.48721.8845 4.83923.78052 1.35202-.10425 2.23838-.41646 2.65377-.93663.4154-.52043.78052-.72866 1.09273-.62441.31221.10398.5715 0 .78052-.31221.20902-.31221.67734-.52044 1.40494-.62442.36513-.0521.7276-.10424 1.09273-.1561-.10319-.15611-.20902-.31221-.31221-.46832-.10319-.1561-.20902-.3122-.31221-.46831.46832-.0521.93663-.10424 1.40494-.1561.93663-.10425 1.61396-.52044 2.02935-1.24884.4154-.72866.93663-1.09272 1.56105-1.09272h.93662v-.93663h.93663v-1.56104h.62441c.41539 0 .93662-.31221 1.56104-.93663.62441-.62441 1.03981-.88476 1.24883-.78052.20902.10398.67733-.36433 1.40494-1.40493.7276-1.04088 1.35202-1.61317 1.87325-1.71715.52123-.10425 1.14564-.52044 1.87325-1.24883.7276-.72867 1.14564-1.30096 1.24883-1.71715.10319-.41645.36513-.67654.78052-.78052.4154-.10425 1.03981-.57256 1.87325-1.40494.83344-.83264 1.92617-2.862 3.27819-6.08806 1.35202-3.22633 1.97644-5.30754 1.87325-6.24417-.10319-.93662 0-1.97749.31221-3.12208.1561-.57256.31221-1.14485.46831-1.71715h-.31221c-.20902 0-.36512-1.66528-.46831-4.99533-.10319-3.33031-.31221-5.20356-.62442-5.61975-.31221-.41645-.52123-1.04087-.62441-1.87325-.10319-.83264-1.03982-2.54979-2.80988-5.15144-1.77006-2.60191-2.80987-3.85074-3.12208-3.7465-.31221.10399-.78052-.26035-1.40494-1.09273-.62442-.83264-1.40494-1.45706-2.34156-1.87325-.93663-.41645-1.45786-.78052-1.56104-1.09272-.10319-.31221-.4154-.41646-.93663-.31221-.52123.10398-.93662 0-1.24883-.31221-.31221-.31221-.15611-1.04087.46831-2.18546.62442-1.14485 1.30175-1.87325 2.02935-2.18546.72761-.31221 1.09273-.62441 1.09273-.93662v-.46832c.15611.0519.31221.10399.46832.15611.3122.10398 1.50812-1.04087 3.59039-3.43429 2.08227-2.39369 3.12208-3.95473 3.12208-4.68313 0-.72866.2593-1.50918.78053-2.34156.52122-.83264.62441-2.96598.3122-6.40027-.3122-3.43429-.7276-5.93196-1.24883-7.493-.52123-1.56104-1.40494-3.12208-2.65377-4.68313-1.24883-1.56104-2.02935-2.34156-2.34156-2.34156h-.46832v-.31221c0-.20822-.36512-.52043-1.09272-.93662-.72761-.41646-1.24884-.57256-1.56105-.46831-.3122.10398-1.09273-.10425-2.34156-.62442-1.24883-.52044-2.39447-.83264-3.43428-.93663-1.03981-.10424-1.87325-.10424-2.49767 0zm-51.82658 1.40493.46831.46831.46831.46832c-.25929.10398-.52123.20796-.78052.31221-.52123.20796-.83344.20796-.93662 0-.10319-.20823 0-.46832.3122-.78053zm55.88528 4.99534c.4154.26008.83344.52017 1.24883.78052.83344.52017 1.35203 1.09273 1.56105 1.71714.10318.31221.20902.62442.3122.93663a458.71636 458.71636 0 0 0-.46831-.31221c-.31221-.20823-.46831-.46831-.46831-.78052s-.4154-.67654-1.24883-1.09273c-.4154-.20823-.83344-.41646-1.24884-.62442.0529-.10424.10319-.20823.15611-.31221.0529-.10424.10318-.20822.1561-.3122zm-3.43428 1.24883c.83344 0 1.61396.1561 2.34156.46831.7276.31221 1.61395 1.14459 2.65376 2.49767 1.03982 1.35281 1.87325 3.06996 2.49767 5.15143.62442 2.08122.93662 3.53828.93662 4.37092 0 .83238-.3122 1.82113-.93662 2.96598-.62442 1.14459-.88371 1.97723-.78052 2.49767.0529.26008.10319.52017.1561.78052h-.62441c-.4154 0-.72761.20796-.93663.62441-.10319.20797-.20902.41619-.31221.62442.10319.0519.20902.10398.31221.15611.10319.0518.20902.10398.31221.1561-.20902.0519-.4154.10398-.62442.1561-.41539.10399-.62441.36407-.62441.78052v.62442c-.2593-.10424-.52123-.20823-.78052-.31221-.2593-.10424-.52123-.20822-.78052-.31221v1.56105c-.25929-.0521-.52123-.10425-.78052-.15611-.25929-.0521-.52123-.10424-.78052-.1561v2.18546c-.1561-.0521-.31221-.10425-.46831-.15611-.31221-.10424-.5715-.0521-.78052.15611-.10319.10398-.20902.20796-.31221.3122.10319-.26035.20902-.52043.31221-.78052.10319-.26035.20902-.52043.31221-.78052h-.31221c-.20902 0-.36513.20797-.46831.62442-.10319.41619-.31221.67627-.62442.78052-.31221.10398-.46831.36407-.46831.78052v.62442c-.2593-.10425-.52123-.20823-.78052-.31221-.2593-.10425-.52123-.20823-.78053-.31221v.46831c0 .31221.15611.5723.46832.78052.1561.10399.31221.20797.46831.31221-.31221-.10424-.62442-.20822-.93663-.31221-.62441-.20822-1.50812-.10424-2.65377.31221-1.14564.41619-1.82033.83238-2.02935 1.24884-.10319.20796-.20902.41619-.31221.62441-.10319-.10424-.20902-.20822-.31221-.31221-.10318-.10424-.20902-.20822-.31221-.3122v.93662c-.1561-.0521-.3122-.10424-.46831-.1561-.1561-.0521-.31221-.10425-.46831-.15611-.0529.31221-.10319.62442-.1561.93663-.10319.62441-.5715 1.0406-1.40494 1.24883-.83344.20796-1.24884.83238-1.24884 1.87325v1.56104c.15611-.10424.31221-.20822.46832-.31221.31221-.20822.46831-.57255.46831-1.09272v-.78053h.46831c.31221 0 .93663.36407 1.87325 1.09273.93663.7284 1.30175 1.40494 1.09273 2.02936-.20902.62441-.62442 1.0406-1.24883 1.24883-.62442.20796-.93663.46831-.93663.78052s1.14565.7284 3.43429 1.24884c2.28865.52017 3.64332.67627 4.05871.46831.20902-.10425.4154-.20823.62442-.31221-.52123-.31221-1.03981-.62442-1.56104-.93663-.52123-.3122-1.03981-.62441-1.56104-.93662.8837.0519 1.77006.10398 2.65377.1561 1.77006.10399 2.86279.41619 3.27818.93663.4154.52017.83344.67627 1.24884.46831.20902-.10424.41539-.20823.62441-.31221.10319.31221.20903.62442.31221.93663.20902.62441 1.09272 1.40494 2.65377 2.34156 1.56104.93663 2.55058 1.92511 2.96597 2.96598.4154 1.04061.72761 1.56104.93663 1.56104h.31221v1.56104c-.15611-.0521-.31221-.10424-.46831-.1561-.31221-.10425-.52123-.36433-.62442-.78052-.0529-.20823-.10319-.41646-.15611-.62442-.20902.0519-.41539.10398-.62441.15611-.4154.10398-.62442.3122-.62442.62441 0 .31221.31221.7284.93663 1.24884.62441.52017.93662 1.0406.93662 1.56104 0 .52017.20902.8845.62442 1.09273.41539.20796.5715.62441.46831 1.24883-.10319.62442.0529 1.97723.46831 4.05871.4154 2.08121.46832 4.00658.15611 5.77585-.31221 1.76901-.78052 3.17394-1.40494 4.21481-.62442 1.04061-1.03981 2.02936-1.24883 2.96598-.20902.93663-.5715 1.66503-1.09273 2.18546-.52123.52017-.78052 1.04061-.78052 1.56104 0 .52017-.36513.98849-1.09273 1.40494-.72761.41619-1.14565.83238-1.24884 1.24883-.10318.41619-.41539.62442-.93662.62442h-.78051c.0529.10398.10318.20796.1561.31221.10319.20796 0 .46831-.31221.78052s-.67733.36407-1.09273.1561c-.41539-.20822-.7276-.20822-.93662 0-.20902.20797-.25929.52017-.15611.93663.10319.41619-.41539.93662-1.56104 1.56104-1.14564.62442-1.77006 1.19671-1.87325 1.71715-.0529.26008-.10319.52017-.1561.78052-.36513-.10425-.72761-.20823-1.09273-.31221-.72761-.20823-1.35202-.10425-1.87325.31221-.52123.41619-.78052.78052-.78052 1.09273 0 .3122-.72761.57229-2.18546.78052-.7276.10398-1.45785.20796-2.18546.31221v-.62442h-1.24883v-.93663h-.78052c-.52123 0-1.30175-.46831-2.34157-1.40493-1.03981-.93663-1.56104-1.71715-1.56104-2.34157 0-.62441.20902-1.35308.62442-2.18545.20902-.41646.4154-.83265.62442-1.24884.0529.46831.10318.93663.1561 1.40494.10319.93662.25929 1.50892.46831 1.71715.20902.20796.46832.26008.78052.1561.31221-.10425.4154-1.35308.31221-3.7465-.10319-2.39369-.36512-3.7465-.78052-4.05871-.41539-.31221-.62442-.67654-.62442-1.09273v-.62441h.31221c.20902 0 .4154-.88477.62442-2.65377.20902-1.76927.25929-3.12209.1561-4.05871-.10318-.93663 0-1.50919.31221-1.71715.31221-.20823.36513-1.30096.15611-3.27819-.10319-.98874-.20902-1.97749-.31221-2.96598h.62441v-1.24883h-.62441v-1.09273c0-.72866.10319-1.24883.31221-1.56104.20902-.31221.20902-.98875 0-2.02935-.20902-1.04087-.2593-2.28971-.15611-3.7465.10319-1.45706.25929-2.18546.46831-2.18546h.31221v-.93663h-.62441c.0529-.93662.10318-1.87325.1561-2.80987.10319-1.87325.31221-3.17421.62442-3.90261.31221-.72866.46831-2.91412.46831-6.55637 0-3.64252.25929-8.16954.78052-13.58106.52123-5.41179.98954-8.48175 1.40494-9.21015.20902-.36433.41539-.72866.62441-1.09273-.10318.5723-.20902 1.14459-.3122 1.71715-.20902 1.14458-.2593 1.97723-.15611 2.49766.10319.52017.25929.78052.46831.78052h.31221c-.0529-.41645-.10318-.83264-.1561-1.24883-.10319-.83264 0-1.82139.31221-2.96598.31221-1.14485.88371-1.87325 1.71714-2.18546.83344-.3122 1.35202-.67654 1.56104-1.09272.20903-.41646.78053-.67654 1.71715-.78053.93663-.10424 1.82033-.41645 2.65377-.93662.83344-.52044 1.66423-.78052 2.49767-.78052zm-53.38763 2.34156c-.62442.10398-.93662.36407-.93662.78052v.62442c.25929-.10425.52123-.20823.78052-.31221.52123-.20823.83343-.46831.93662-.78052.0529-.1561.10319-.31221.15611-.46831-.31221.0519-.62442.10398-.93663.1561zm-9.99067 6.40027c.05292.26009.1032.52017.1561.78052.1032.52017-.10318 1.09273-.6244 1.71715-.52124.62441-.78053 1.14459-.78053 1.56104 0 .41619-.1561.67627-.46831.78052-.31221.10398-.67734.83238-1.09273 2.18546-.4154 1.35281-.78052 2.08121-1.09273 2.18546-.1561.0519-.3122.10398-.46831.1561.7276-1.56104 1.45785-3.12208 2.18546-4.68312.7276-1.56105 1.45785-3.12209 2.18545-4.68313zm51.98269 5.46365c-.10318 2.39342-.25929 3.79836-.46831 4.21481-.20902.41619-.20902.83238 0 1.24883.20902.41619.4154.62442.62442.62442.20902 0 .36512-.41645.46831-1.24883.10319-.83265.1561-2.44581.1561-4.83923v-3.5904h-.3122c-.20902 0-.36513 1.19671-.46832 3.5904zm-132.53244 2.34156c.1561.0519.31221.10398.46831.1561.31221.10399.46832.41619.46832.93663 0 .52017-.10398.83238-.31221.93662-.10398.0519-.20823.10399-.3122.15611-.05213-.36433-.10399-.72866-.15611-1.09273-.05212-.36433-.10398-.72866-.1561-1.09273zm79.45702 2.34156c-.05292.36407-.10318.7284-.1561 1.09273.20902-.26035.4154-.52043.62442-.78052.20902-.26035.4154-.52043.62441-.78052a470.04497 470.04497 0 0 0-.4683-.31221 486.87634 486.87634 0 0 0-.46832-.31221c-.05292.36407-.10319.7284-.1561 1.09273zm-2.96597-.46831c.05292.10398.10318.20796.1561.31221.10319.20796-.1561.98848-.78052 2.34156-.3122.67628-.62442 1.35282-.93663 2.02935v-1.24883c0-.83264.2593-1.61316.78052-2.34156.2593-.36433.52123-.72866.78053-1.09273zm55.10477 4.21481c-.10319 1.35282.0529 2.23732.46831 2.65377.20902.20797.4154.41619.62442.62442-.0529-.52044-.10319-1.04087-.15611-1.56104-.10318-1.04087-.0529-1.71715.15611-2.02936.20902-.3122.10319-.67654-.31221-1.09273-.20902-.20822-.4154-.41645-.62442-.62441-.0529.67627-.10318 1.35281-.1561 2.02935zm-54.16815.62442c-.4154 1.35281-.62442 2.70563-.62442 4.05871 0 1.35281-.20902 2.54952-.62441 3.59039-.4154 1.04061-.67734 2.18546-.78052 3.43429-.05292.62442-.10319 1.24884-.1561 1.87325.1561-.0521.3122-.10424.4683-.1561.31221-.10425.4154-.41645.31221-.93662-.10318-.52044-.05292-.88477.1561-1.09273.20903-.20823.46832-1.45706.78053-3.7465.3122-2.28971.5715-3.48642.78052-3.5904.20902-.10425.46831-.78052.78052-2.02935.3122-1.24884.46831-2.08148.46831-2.49767 0-.41645-.1561-.67654-.46831-.78052-.1561-.0521-.3122-.10425-.46831-.15611-.20902.67628-.4154 1.35282-.62442 2.02936zm-3.43429.46831c.1561.0519.3122.10398.46831.15611.31221.10398.46831.57229.46831 1.40493 0 .83238-.20902 1.66503-.62441 2.49767-.4154.83238-.88371 3.12208-1.40494 6.86858-.52123 3.7465-.8837 5.72373-1.09273 5.93196-.20902.20796-.3122.7284-.3122 1.56104v1.24884h-.62442c.05292.26008.10318.52017.1561.78052.05292.26008.10319.52017.1561.78052h-.62441c.05292-1.04087.10318-2.08148.1561-3.12209.10319-2.08147.31221-3.48641.62442-4.21481.3122-.72866.83344-3.22633 1.56104-7.493.36512-2.1336.7276-4.26693 1.09273-6.40027zm57.75854 4.83923c-.10318.36407-.20902.7284-.31221 1.09273.15611-.10425.31221-.20823.46832-.31221.31221-.20823.41539-.57256.31221-1.09273-.0529-.26035-.10319-.52043-.15611-.78052-.10319.36407-.20902.7284-.31221 1.09273zm-108.33629 5.15144c-.10398.31221-.20823.62441-.3122.93662-.15611-.10424-.31222-.20822-.46832-.31221-.3122-.20822-.62442-.20822-.93663 0-.3122.20797-.41619.98849-.3122 2.34157.10398 1.35281.3122 2.18546.62441 2.49766.31221.31221.36433.67628.1561 1.09273-.20822.41619-.10397 1.04061.31221 1.87325.4162.83238.83265 1.24884 1.24884 1.24884h.62441v-.31221c0-.20823.67654-.72866 2.02936-1.56104 1.35281-.83265 1.92537-2.02936 1.71714-3.5904-.20822-1.56104-.67653-2.49767-1.40493-2.80987-.7284-.31221-1.40494-.78053-2.02936-1.40494l-.93662-.93663c-.10398.31221-.20823.62442-.31221.93663zm118.48306 6.24416c.10319.41619.4154.5723.93663.46832.52123-.10425 1.09273.1561 1.71714.78052.62442.62441 1.30175.93662 2.02936.93662h1.09272c-.1561.10398-.31221.20797-.46831.31221a458.71636 458.71636 0 0 0-.46831.31221c.10319.10398.20902.20796.3122.31221.10319.10398.20902.20796.31221.31221.0529-.10425.10319-.20823.15611-.31221.10318-.20823.3122-.26035.62441-.15611.31221.10398.5715.26009.78052.46832.20902.20796.25929.46831.15611.78052-.10319.31221.10318.62441.62441.93662.2593.15611.52123.31221.78052.46831l-.46831-.46831c-.31221-.31221-.46831-.62441-.46831-.93662v-.46832c.1561.0519.31221.10399.46831.15611.15611.0519.31221.10398.46831.1561-.10318-.1561-.20902-.31221-.3122-.46831-.20902-.31221-.62442-.52044-1.24884-.62442-.62441-.10424-1.45785-.67654-2.49766-1.71714-1.03981-1.04087-2.08227-1.61317-3.12208-1.71715-.52123-.0521-1.03981-.10424-1.56104-.1561.0529.20796.10319.41619.1561.62441zm-141.89869 1.24884c.20823.10398.4162.20796.62442.31221.41619.20796.62442.46831.62442.78052v.46831h-.31221c-.20823 0-.4162-.26035-.62442-.78052-.10398-.26035-.20823-.52044-.3122-.78052zm72.74455 4.37091c.10318.36407.20902.7284.3122 1.09273.20902.7284.2593 1.56105.1561 2.49767-.10318.93663-.25928 1.40494-.4683 1.40494-.20903 0-.36513-.52044-.46832-1.56104-.10318-1.04087-.05292-1.87325.1561-2.49767.1032-.31221.20903-.62442.31222-.93663zm58.07075 5.30755c0 .41619.1561.67627.46831.78052.1561.0519.31221.10398.46831.1561v-1.56104h-.93662zm-58.07075.93662c.10318.8845.20902 1.76901.3122 2.65377.1032.8845.20902 1.76901.31221 2.65377-.1561-.52043-.3122-1.04087-.46831-1.56104-.3122-1.04087-.4154-1.92537-.3122-2.65377.05291-.36433.10318-.72866.1561-1.09273zm-1.56105 1.24883c.1561.41619.31221.83238.46832 1.24884.3122.83238.52123 2.08121.62441 3.7465.05292.83238.1032 1.66502.1561 2.49766-.10318-.62441-.20901-1.24883-.3122-1.87325-.20902-1.24883-.4154-1.92537-.62442-2.02935-.20902-.10425-.3122-.72866-.3122-1.87325zM67.1989 162.6026c-1.14565.93662-1.77007 1.66502-1.87325 2.18546-.1032.52017-.52123 1.09273-1.24884 1.71714-.7276.62442-1.24883 1.35282-1.56104 2.18546-.3122.83238-.7276 1.4568-1.24883 1.87325-.52123.41619-.78052.8845-.78052 1.40494 0 .52017-.36513 1.30069-1.09273 2.34156-.7276 1.04061-1.50813 2.75775-2.34157 5.15144-.4154 1.19671-.83343 2.39342-1.24883 3.59039-.05292-.20822-.10319-.41645-.1561-.62441-.10319-.41646-.36513-.78052-.78052-1.09273-.4154-.31221-.78052-1.19698-1.09273-2.65377-.31221-1.45706-.83344-2.96598-1.56104-4.52702-.7284-1.56104-1.19672-3.01811-1.40494-4.37092-.20823-1.35308-.4162-2.02935-.62442-2.02935-.20823 0-.62442-.88477-1.24883-2.65377-.62442-1.76927-1.14485-2.80988-1.56104-3.12209-.20823-.1561-.4162-.31221-.62442-.46831-.10398.26008-.20823.52017-.3122.78052-.20824.52017-.67655 1.04061-1.40495 1.56104-.36433.26009-.7284.52017-1.09273.78052.20823.0519.4162.10398.62442.15611.20823.0519.4162.10398.62442.1561-.10398.20796-.20823.41619-.31221.62442-.20823.41619-.3122.8845-.3122 1.40494 0 .52017.1561.83237.4683.93662.31221.10398.4162.62442.31221 1.56104-.10398.93663.10398 1.56104.62442 1.87325.52043.31221.67654.78052.46831 1.40494-.10398.31221-.20823.62442-.3122.93662h.93662c-.05212.20797-.10398.41619-.1561.62442-.05213.20796-.10399.41619-.15611.62442h.46831c.31221 0 .52044.67627.62442 2.02935.10398 1.35282.41619 2.39342.93662 3.12208.52044.7284.67654 1.3007.46832 1.71715-.10399.20796-.20823.41619-.31221.62442h.93662c-.10398.20796-.20822.41619-.3122.62441-.20823.41619-.26009.7284-.1561.93663.05211.10398.10397.20796.1561.31221.10398-.0521.20822-.10425.3122-.15611.10398-.0521.20823-.10424.31221-.1561-.10398.57229-.20823 1.14459-.3122 1.71714-.20823 1.14459-.10399 2.08122.3122 2.80988.4162.7284.62442 1.50892.62442 2.34156 0 .83238.10398 1.30069.3122 1.40494.20823.10398.46832.8845.78053 2.34156.1561.7284.3122 1.4568.46831 2.18546.52123-.10425 1.03981-.20823 1.56104-.31221 1.03981-.20822 1.87325-.1561 2.49767.15611.62441.3122.8837.67627.78052 1.09273-.05292.20796-.10319.41619-.1561.62441h.4683c.31222 0 .5715-.52043.78053-1.56104.20902-1.04087.46831-1.56104.78052-1.56104.3122 0 .67733-.62442 1.09273-1.87325s.62441-2.34156.62441-3.27819v-1.40494h.31221c.20902 0 .5715-.98874 1.09273-2.96598.52123-1.97749.93663-3.07022 1.24884-3.27818.3122-.20823.98954-1.50919 2.02935-3.90261 1.03981-2.39368 1.82033-3.7465 2.34156-4.0587.52123-.31221.98954-.83265 1.40494-1.56105.4154-.72866.62442-1.19697.62442-1.40493v-.31221h-.46832c-.3122 0-1.19591 1.14459-2.65377 3.43429-1.45785 2.28944-2.28864 3.38217-2.49766 3.27819-.20902-.10425 0-.93663.62441-2.49767.62442-1.56104 1.56104-3.07022 2.80988-4.52702 1.24883-1.45706 1.97644-2.44581 2.18546-2.96598.20902-.52044.20902-.88477 0-1.09273-.1032-.10424-.20902-.20823-.31221-.31221-.4154.46832-.83344.93663-1.24884 1.40494-.83343.93663-1.82033 2.54953-2.96597 4.83923-1.14565 2.28944-1.97644 3.69438-2.49767 4.21481-.2593.26009-.52123.52017-.78052.78052.05292-.31221.10319-.62441.1561-.93662.10319-.62442.67734-1.76927 1.71715-3.43429 1.03981-1.66529 1.56104-2.7059 1.56104-3.12209 0-.41645.52123-1.19697 1.56104-2.34156 1.03981-1.14485 1.61396-2.18546 1.71715-3.12208.10318-.93663.3122-1.56104.62441-1.87325.31221-.31221.46832-.67654.46832-1.09273v-.62442h-.46832c-.3122 0-1.0398.46831-2.18545 1.40494zm75.86662-.62442c-.10319.52017-.0529.93663.15611 1.24884.10318.1561.20902.3122.3122.46831.0529-.41646.10319-.83265.15611-1.24884.0529-.41645.10319-.83264.1561-1.24883h-.31221c-.20902 0-.36512.26009-.46831.78052zm-106.61915 3.27819c-.62441 1.24883-.8845 2.28944-.78052 3.12208.05212.41619.10399.83238.1561 1.24884h-.6244v.62441c0 .41619.1561.78052.4683 1.09273l.46832.46831c-.10398.10399-.20823.20797-.31221.31221-.20823.20797-.20823.5723 0 1.09273.20823.52017.1561.8845-.1561 1.09273-.31221.20796-.46832.52017-.46832.93663 0 .41619.10398.78052.31221 1.09273.20823.3122.46831.41618.78052.3122.1561-.0521.3122-.10424.46831-.1561v4.52702c0 3.01784.10398 4.631.31221 4.83923.20823.20796.26009.98848.1561 2.34156-.10398 1.35282-.05211 2.44555.15611 3.27819.10398.41619.20823.83238.3122 1.24883a726.5299 726.5299 0 0 0-.6244-.31221c-.4162-.20822-.5723-.57255-.46832-1.09273.10398-.52043.05212-.93662-.1561-1.24883-.20823-.31221-.20823-.62442 0-.93662.10398-.15611.20822-.31221.3122-.46832h-.3122c-.20823 0-.4162 1.19671-.62442 3.5904-.10398 1.19671-.20823 2.39342-.31221 3.5904.8845.0519 1.76927.10398 2.65377.1561 1.76927.10398 2.7059-.0521 2.80988-.46831.10398-.41646 0-.93663-.31221-1.56104-.31221-.62442-.31221-1.04088 0-1.24884.3122-.20822.46831-.78052.46831-1.71714 0-.93663-.10398-2.23758-.3122-3.90261-.20824-1.66529-.4162-2.60191-.62443-2.80987-.20822-.20823-.26008-1.30096-.1561-3.27819.10398-1.9775 0-4.42304-.3122-7.3369-.31222-2.91412-.36434-4.73524-.15611-5.46364.20823-.72866.20823-1.56104 0-2.49767-.20823-.93662-.62442-1.56104-1.24884-1.87325l-.93662-.46831zm83.98405-.93663h.31221c-.0529.36407-.10319.7284-.15611 1.09273-.10318.7284-.41539 1.66503-.93662 2.80988-.25929.57229-.52123 1.14459-.78052 1.71714.20902-.93662.41539-1.87325.62441-2.80987.4154-1.87325.72761-2.80988.93663-2.80988zm-108.0241 2.18546c.10398.26009.20823.52017.3122.78052.20824.52017.4162.78052.62443.78052h.3122c-.10398.26009-.20822.52018-.3122.78053-.10398.26008-.20823.52017-.31221.78052a188.81163 188.81163 0 0 0-.31221-.15611c-.20823-.10424-.3122-.62441-.3122-1.56104zm0 3.43429c.1561.0519.3122.10399.46831.15611.1561.0519.31221.10398.46832.1561-.10398.31221-.20823.62442-.31221.93663-.10398.31221-.20823.62441-.31221.93662-.05212-.36433-.10398-.72866-.1561-1.09273-.05212-.36433-.10399-.72866-.1561-1.09273zm23.72784 2.49767h.62441c-.05212.36407-.10398.7284-.1561 1.09273-.05212.36407-.10398.7284-.1561 1.09273-.05213-.36433-.10399-.72866-.1561-1.09273-.05213-.36433-.10399-.72866-.15611-1.09273zm-.62442 6.71248v1.71715h.62442v-3.4343h-.62442Zm26.2255-1.40494c.10319.10398.20902.20797.3122.31221.20903.20796.1032.8845-.3122 2.02935-.4154 1.14459-.7276 1.71715-.93662 1.71715h-.31221c.20902-.67654.4154-1.35308.62441-2.02935.20902-.67654.4154-1.35308.62442-2.02936zm44.17748 1.24884c.15611.10398.31221.20796.46831.3122l-1.40493.93663c-.93663.62442-2.18546.93662-3.74651.93662-1.56104 0-2.55058-.10424-2.96598-.3122-.4154-.20823-.62441-.41646-.62441-.62442v-.31221c.1561.10398.3122.20796.46831.31221.3122.20796 1.35202.26008 3.12208.1561 1.77007-.10424 2.91307-.41645 3.4343-.93662.52123-.52044.93662-.67654 1.24883-.46831zm11.86392 2.80987c-.0529.7284-.10319 1.4568-.15611 2.18546.15611-.10425.31221-.20823.46832-.31221.3122-.20823.46831-.93662.46831-2.18546v-1.87325h-.31221c-.20902 0-.36512.7284-.46831 2.18546zm-2.96598-1.56104c.1561.0519.31221.10398.46831.1561.31221.10398.36513 1.04061.15611 2.80988-.10319.8845-.20903 1.769-.31221 2.65377-.10319-.0521-.20902-.10425-.31221-.15611-.20902-.10424-.25929-1.04087-.15611-2.80987.0529-.88477.10319-1.76927.15611-2.65377zm-102.09213 7.493c.20823.1561.41619.31221.62442.46831.41619.31221.62441.67628.62441 1.09273v.62442c-.20822-.15611-.41619-.31221-.62441-.46832-.4162-.3122-.62442-.67653-.62442-1.09272zm.93662 5.30754c.10399.0519.20823.10398.31221.1561.20823.10399.36433.67628.46832 1.71715.10398 1.04061-.05212 1.6129-.46832 1.71715-.20822.0519-.41619.10398-.62441.1561.05212-.62442.10398-1.24883.1561-1.87325.05212-.62442.10398-1.24883.1561-1.87325zm129.25426 4.05871c.36512.0519.7276.10398 1.09273.1561.36512.0519.7276.10398 1.09273.15611-.0529.20796-.10319.41619-.15611.62441-.10319.41619-.41539.5723-.93662.46832-.52123-.10425-.83344-.36433-.93663-.78052-.0529-.20823-.10319-.41646-.1561-.62442zM76.09682 211.4632c.36513.10398.7276.20796 1.09273.31221.36513.10398.7276.20796 1.09273.31221h-2.18546zm-10.61508.31221c.05292.10398.10319.20796.1561.31221.05292.10398.1032.20796.1561.31221-.25928.10398-.52122.20796-.78051.31221-.2593.10398-.52123.20796-.78052.3122.20902-.20822.4154-.41645.62441-.62441.20902-.20823.4154-.41646.62442-.62442z" style="stroke-width:.264583" transform="translate(-9.59645 -83.2843)"></path>
</svg><style>@media (prefers-color-scheme: light) { :root { filter: none; } }
@media (prefers-color-scheme: dark) { :root { filter: invert(100%); } }
</style></svg>