<?xml version="1.0" standalone="no"?>
<!DOCTYPE svg PUBLIC "-//W3C//DTD SVG 20010904//EN"
 "http://www.w3.org/TR/2001/REC-SVG-20010904/DTD/svg10.dtd">
<svg version="1.0" xmlns="http://www.w3.org/2000/svg"
 width="700.000000pt" height="700.000000pt" viewBox="0 0 700.000000 700.000000"
 preserveAspectRatio="xMidYMid meet">
<metadata>
Created by potrace 1.14, written by Peter Selinger 2001-2017
</metadata>
<g transform="translate(0.000000,700.000000) scale(0.100000,-0.100000)"
fill="#000000" stroke="none">
<path d="M3298 6995 c-1 -1 -43 -6 -92 -10 -50 -4 -97 -8 -105 -10 -9 -1 -47
-6 -84 -10 -37 -3 -78 -8 -90 -11 -12 -2 -35 -6 -52 -9 -198 -38 -505 -126
-645 -185 -41 -18 -86 -34 -100 -36 -13 -3 -31 -10 -38 -17 -8 -6 -22 -12 -32
-14 -17 -2 -106 -43 -171 -78 -14 -8 -28 -12 -31 -10 -3 3 -13 -4 -23 -15 -10
-11 -24 -20 -31 -20 -7 0 -31 -19 -53 -42 -22 -24 -41 -37 -41 -30 0 6 -4 12
-10 12 -5 0 -10 -6 -10 -14 0 -12 -20 -27 -40 -30 -3 -1 -19 -14 -35 -29 -17
-15 -40 -30 -52 -33 -13 -4 -23 -10 -23 -15 0 -5 -5 -9 -11 -9 -5 0 -7 5 -4
10 8 13 2 13 -30 -2 -14 -6 -25 -15 -25 -20 0 -12 14 -10 28 4 7 7 12 8 12 3
-1 -16 -23 -41 -61 -66 -38 -25 -103 -77 -197 -157 -70 -59 -323 -311 -379
-377 -23 -28 -63 -75 -88 -105 -26 -30 -56 -66 -68 -80 -12 -14 -28 -37 -35
-51 -8 -15 -24 -37 -36 -50 -12 -13 -25 -32 -28 -41 -4 -9 -16 -22 -27 -27
-19 -11 -20 -10 -5 24 8 20 22 44 32 55 9 10 22 25 27 32 6 7 20 26 33 42 12
15 19 32 17 37 -8 11 -79 -69 -96 -108 -8 -18 -19 -33 -25 -33 -11 0 -84 -110
-84 -127 0 -6 -9 -18 -19 -27 -11 -10 -17 -23 -15 -30 3 -7 -2 -19 -11 -26 -8
-7 -15 -21 -15 -30 0 -10 -5 -20 -12 -22 -7 -3 -9 -12 -5 -23 6 -14 13 -7 34
36 15 30 31 59 35 64 5 6 24 32 43 60 39 55 46 55 15 0 -11 -19 -17 -35 -14
-35 4 0 2 -6 -3 -12 -6 -7 -13 -25 -17 -40 -4 -19 -11 -26 -21 -22 -11 5 -13
2 -9 -11 5 -11 1 -21 -9 -27 -10 -5 -17 -16 -17 -23 0 -8 -4 -15 -10 -15 -5 0
-7 -7 -4 -15 4 -8 -1 -17 -10 -21 -9 -3 -13 -10 -10 -16 3 -5 -4 -20 -17 -34
-12 -13 -19 -24 -14 -24 5 0 -2 -11 -14 -24 -12 -13 -25 -39 -27 -57 -3 -19
-20 -63 -38 -99 -18 -36 -36 -77 -40 -93 -3 -15 -17 -51 -30 -80 -30 -67 -46
-118 -46 -145 0 -11 -4 -24 -10 -27 -5 -3 -10 -15 -10 -26 0 -11 -4 -18 -9
-15 -8 5 -2 42 14 96 3 8 11 38 19 66 8 28 23 71 34 95 11 24 25 62 32 84 11
35 41 103 121 270 13 28 25 53 27 58 2 4 -1 7 -7 7 -11 0 -30 -32 -80 -136
-13 -27 -28 -57 -33 -67 -5 -10 -6 -22 -3 -27 4 -6 2 -10 -4 -10 -6 0 -14 -12
-17 -27 -4 -16 -11 -33 -15 -39 -13 -16 -49 -124 -42 -124 3 0 1 -6 -5 -12 -5
-7 -22 -53 -36 -103 -15 -49 -31 -98 -37 -107 -5 -10 -9 -28 -9 -41 0 -13 -3
-27 -7 -31 -4 -3 -8 -17 -10 -29 -2 -12 -10 -42 -18 -67 -14 -44 -38 -177 -50
-275 -3 -27 -8 -63 -11 -80 -7 -47 -12 -126 -20 -319 -5 -150 -4 -177 7 -170
12 6 12 5 0 -9 -11 -13 -12 -33 -5 -90 4 -39 9 -103 10 -142 2 -79 13 -175 22
-190 8 -12 10 -25 17 -93 5 -57 14 -101 24 -117 3 -5 6 -21 7 -35 2 -56 79
-360 123 -485 71 -207 193 -485 211 -485 6 0 10 -8 10 -19 0 -16 164 -313 191
-344 42 -50 53 -65 65 -89 8 -15 22 -33 32 -40 11 -7 25 -24 32 -38 7 -14 29
-43 49 -65 20 -23 58 -68 86 -100 99 -119 326 -336 397 -381 20 -13 39 -28 43
-34 3 -5 30 -26 58 -45 29 -19 86 -57 127 -86 129 -89 263 -167 436 -253 103
-51 112 -55 234 -105 221 -90 611 -199 770 -216 19 -2 85 -10 145 -17 178 -21
674 -17 845 7 91 13 281 48 330 61 30 8 63 17 73 19 9 2 20 6 25 8 4 3 29 8
56 11 27 4 54 10 60 14 11 7 51 22 176 66 41 14 95 36 120 48 25 11 76 31 113
45 45 15 90 42 132 76 35 28 103 72 152 96 48 25 120 66 158 91 39 26 94 62
123 80 28 18 52 37 52 41 0 3 8 9 18 13 42 15 362 275 362 295 0 5 9 12 19 16
31 10 228 214 240 248 2 7 15 22 28 34 12 12 23 25 23 28 0 3 12 19 28 36 15
16 47 60 72 99 25 38 51 69 57 69 7 1 16 13 19 29 4 15 24 50 45 78 22 28 39
56 39 62 0 7 5 12 10 12 6 0 10 7 10 15 0 8 5 15 11 15 5 0 7 5 4 10 -3 6 -1
10 4 10 6 0 24 28 40 63 34 71 103 200 111 207 18 16 46 73 71 146 16 47 33
92 38 102 26 51 45 114 44 145 0 9 3 17 7 17 9 0 30 47 30 68 0 9 7 29 14 44
8 16 17 45 20 65 4 21 10 49 16 63 13 35 38 138 45 185 4 22 8 51 11 65 3 14
7 54 9 90 3 36 7 97 11 135 3 39 7 91 8 117 0 27 6 48 11 48 6 0 10 22 11 50
0 27 -4 50 -9 50 -5 0 -6 15 -2 38 8 38 8 259 0 347 -10 111 -13 134 -28 186
-9 30 -19 83 -22 119 -4 36 -9 68 -11 72 -2 4 -8 26 -14 50 -22 107 -50 217
-64 257 -9 24 -16 54 -16 67 0 13 -4 24 -10 24 -5 0 -9 15 -8 33 1 17 -6 47
-16 65 -9 17 -14 32 -11 32 3 0 -1 13 -10 30 -8 16 -15 38 -15 50 0 11 -5 20
-12 20 -6 0 -9 3 -6 6 11 10 -23 94 -39 94 -8 0 -12 4 -9 9 9 14 -21 86 -34
83 -7 -2 -10 3 -7 11 3 8 -5 38 -18 66 -14 28 -23 53 -22 55 1 2 -5 12 -15 22
-9 11 -23 36 -31 56 -9 20 -25 43 -36 50 -12 7 -21 17 -21 21 0 5 -11 23 -25
41 -14 18 -22 36 -18 39 3 4 2 7 -4 7 -6 0 -26 24 -45 53 -19 28 -55 81 -80
117 -25 36 -48 76 -51 90 -4 15 -18 30 -37 38 -16 8 -28 18 -24 23 3 5 0 9 -6
9 -7 0 -9 7 -6 16 3 8 2 12 -4 9 -6 -3 -10 -2 -10 4 0 6 -15 26 -32 46 -18 19
-33 39 -33 43 0 13 -279 302 -292 302 -1 0 -24 21 -52 47 -27 25 -70 60 -94
77 -24 17 -72 51 -107 76 -34 25 -70 50 -79 55 -67 40 -121 78 -121 86 0 5 -7
9 -16 9 -14 0 -32 12 -91 60 -7 6 -19 10 -27 10 -8 0 -17 4 -20 9 -6 8 -143
78 -216 108 -19 9 -47 24 -62 35 -16 10 -32 17 -37 14 -5 -3 -11 0 -14 8 -3 8
-21 17 -39 21 -18 4 -42 13 -53 21 -22 14 -80 35 -257 94 -119 40 -332 91
-487 116 -18 3 -43 7 -55 10 -11 2 -55 6 -96 10 -41 3 -93 8 -115 11 -44 6
-501 13 -507 8z m472 -130 c41 -3 102 -8 135 -12 33 -4 69 -7 80 -8 11 0 34
-4 50 -8 44 -11 63 -14 135 -22 36 -4 103 -17 150 -30 268 -72 401 -113 417
-128 3 -4 14 -7 23 -7 43 0 388 -164 487 -231 23 -16 44 -29 47 -29 4 0 29
-16 56 -35 27 -19 54 -35 59 -35 5 0 34 -19 65 -42 30 -24 86 -65 123 -93 37
-27 70 -52 73 -55 3 -3 46 -41 95 -84 113 -100 337 -328 376 -383 16 -23 32
-43 37 -45 17 -6 109 -134 187 -258 26 -41 55 -86 64 -100 9 -14 23 -41 31
-60 8 -19 26 -51 42 -70 15 -19 28 -39 28 -45 0 -14 43 -99 53 -103 4 -2 7
-12 7 -22 0 -10 4 -22 10 -25 5 -3 19 -35 30 -71 11 -36 26 -78 34 -92 21 -40
56 -129 56 -143 0 -7 9 -31 19 -53 25 -51 66 -194 81 -277 6 -35 15 -77 20
-94 5 -16 11 -49 14 -72 2 -23 7 -46 9 -50 3 -5 8 -47 12 -94 3 -46 11 -135
19 -197 7 -62 12 -135 10 -162 -1 -28 1 -50 5 -50 4 0 6 -19 4 -42 -12 -192
-13 -302 -4 -288 9 13 11 12 11 -5 0 -17 2 -18 10 -5 7 11 9 2 4 -30 -8 -65
-11 -70 -30 -63 -13 5 -16 2 -11 -10 3 -8 2 -17 -2 -19 -5 -2 -11 -30 -14 -63
-6 -66 -28 -179 -57 -295 -18 -74 -50 -206 -54 -225 -1 -5 -5 -16 -9 -22 -18
-28 -37 -114 -31 -138 4 -15 2 -25 -5 -25 -11 0 -67 -113 -92 -185 -7 -22 -23
-59 -36 -82 -12 -24 -25 -58 -28 -75 -4 -18 -12 -36 -18 -40 -7 -4 -7 -11 -1
-20 6 -7 10 -17 9 -23 -2 -17 -28 -68 -55 -110 -15 -22 -30 -48 -33 -58 -4
-10 -11 -15 -17 -12 -6 3 -7 0 -4 -9 3 -9 -4 -28 -15 -43 -12 -16 -51 -73 -88
-128 -36 -55 -76 -111 -88 -125 -12 -14 -27 -33 -32 -43 -9 -17 -11 -17 -25
-3 -17 16 -23 12 -43 -24 -5 -10 -1 -8 13 4 12 11 22 14 22 8 0 -6 -5 -14 -11
-17 -6 -4 -14 -17 -19 -29 -7 -17 -9 -17 -9 -3 -1 9 -5 17 -10 17 -11 0 -25
-30 -22 -47 1 -7 -8 -13 -20 -13 -15 0 -19 -4 -15 -16 3 -8 2 -12 -4 -9 -11 7
-69 -54 -70 -72 0 -7 -4 -13 -8 -13 -8 0 -122 -109 -122 -116 0 -2 8 -1 18 3
10 3 5 -5 -12 -21 -31 -28 -41 -33 -30 -15 10 17 -28 -5 -48 -28 -9 -10 -18
-31 -21 -47 -2 -20 -21 -45 -58 -78 -30 -26 -57 -48 -61 -48 -4 0 -18 -11 -32
-25 -15 -15 -31 -22 -40 -19 -10 4 -16 1 -16 -8 0 -8 -13 -24 -30 -36 -25 -19
-30 -20 -37 -7 -8 13 -11 13 -28 1 -19 -15 -19 -15 3 -9 18 4 21 2 16 -11 -3
-9 -10 -14 -14 -11 -5 3 -15 -2 -23 -10 -9 -8 -28 -19 -44 -25 -26 -9 -27 -9
-9 5 11 8 23 15 28 15 4 0 8 5 8 11 0 6 -13 1 -30 -11 -18 -13 -27 -26 -23
-36 4 -10 -2 -17 -16 -21 -11 -3 -21 -9 -21 -14 0 -4 -21 -22 -46 -40 -35 -24
-48 -28 -54 -19 -6 10 -11 7 -21 -9 -8 -11 -21 -21 -30 -21 -9 0 -22 -7 -29
-15 -15 -18 -45 -21 -34 -3 4 7 3 8 -4 4 -6 -4 -9 -13 -5 -21 3 -8 1 -15 -3
-16 -27 -2 -47 -9 -67 -22 -34 -22 -97 -29 -104 -11 -6 17 -37 18 -51 1 -10
-12 -12 -18 -12 -37 0 -5 -9 -14 -21 -21 -29 -15 -151 -61 -166 -62 -7 0 -13
-4 -13 -8 0 -4 -26 -15 -57 -25 -32 -9 -89 -27 -128 -39 -38 -13 -86 -26 -106
-29 -20 -3 -47 -10 -60 -14 -13 -5 -49 -13 -79 -16 -44 -6 -51 -5 -36 5 10 6
31 13 45 15 39 5 92 20 131 37 44 20 28 21 -36 3 -27 -8 -66 -17 -86 -20 -21
-3 -57 -10 -80 -15 -69 -16 -99 -21 -163 -27 -74 -7 -102 -11 -112 -17 -25
-15 -564 -26 -695 -14 -72 7 -97 0 -68 -18 6 -3 10 -1 10 6 0 8 3 9 13 0 8 -6
37 -12 65 -13 28 -1 48 -6 46 -10 -5 -8 -201 -1 -215 8 -5 3 -9 14 -9 24 0 20
-20 27 -103 35 -26 2 -52 7 -58 10 -5 4 -9 2 -9 -4 0 -5 6 -12 13 -14 9 -4 9
-8 -2 -15 -9 -7 -26 -6 -52 3 -20 8 -40 11 -43 8 -3 -4 -6 -1 -6 5 0 7 7 12
15 12 18 0 20 16 3 18 -15 1 -37 7 -58 15 -8 3 -42 12 -75 20 -33 9 -114 32
-180 52 -129 39 -201 54 -175 36 12 -9 11 -11 -8 -11 -34 0 -209 85 -224 109
-7 12 -19 21 -26 21 -7 0 -10 -4 -7 -10 9 -14 3 -13 -49 10 -35 15 -46 25 -46
42 0 18 -2 20 -9 9 -8 -13 -14 -13 -38 -2 -36 17 -166 102 -175 116 -5 6 -8 6
-8 0 0 -5 -5 -2 -11 8 -5 9 -15 17 -22 17 -7 0 -18 9 -25 20 -7 12 -16 19 -20
16 -5 -3 -38 19 -75 47 -36 29 -82 63 -102 77 -56 40 -74 53 -103 78 -15 13
-43 35 -62 50 -19 14 -58 49 -86 76 -28 28 -68 67 -90 87 -98 90 -270 286
-319 364 -11 17 -22 32 -25 35 -10 9 -50 69 -50 74 0 3 -23 36 -50 74 -28 38
-50 72 -50 77 0 5 -6 16 -14 24 -12 14 -53 88 -115 206 -43 81 -119 252 -141
315 -13 36 -26 67 -29 70 -7 5 -7 8 -26 95 -7 36 -17 59 -24 57 -7 -1 -11 3
-10 10 4 21 -12 78 -22 78 -5 0 -9 22 -8 50 1 27 -2 55 -8 62 -6 7 -11 32 -12
56 0 24 -12 68 -27 99 -19 42 -22 58 -13 64 10 6 9 21 -4 71 -10 34 -19 112
-22 171 -2 59 -7 112 -10 117 -4 6 -8 91 -11 190 -3 126 -8 187 -17 203 -8 12
-13 27 -12 32 5 32 18 65 26 65 5 0 9 7 9 15 0 8 -4 15 -10 15 -5 0 -10 4 -10
10 0 5 5 9 12 7 7 -1 12 14 14 38 9 135 34 316 53 383 5 17 8 32 5 32 -3 0 -1
8 4 18 5 9 6 26 2 37 -4 11 -3 28 2 38 5 10 11 38 13 62 4 51 12 68 27 59 6
-4 8 1 3 15 -4 13 -1 27 9 36 8 9 13 22 10 30 -4 8 -1 15 6 15 6 0 9 4 6 9 -4
5 0 22 8 38 19 38 96 234 101 254 2 9 8 25 13 35 5 11 18 36 28 58 31 62 58
112 70 127 7 8 24 38 40 68 15 29 45 76 66 105 21 28 38 56 38 63 0 7 5 13 10
13 6 0 10 6 10 14 0 8 7 17 16 20 9 4 14 9 11 13 -6 5 8 25 63 93 11 14 46 58
76 98 31 40 66 83 77 96 12 12 31 34 42 48 32 42 126 137 205 208 40 36 87 79
105 95 17 17 49 44 70 60 21 17 66 51 99 78 89 69 224 160 316 212 25 14 63
36 85 50 37 23 197 103 376 189 42 20 83 36 90 36 8 0 64 17 124 39 61 21 130
44 155 51 25 7 70 21 100 30 62 20 65 21 290 56 225 35 289 41 475 43 87 1
161 4 163 6 2 2 14 2 25 -1 12 -2 56 -6 97 -9z m-2056 -490 c-25 -19 -40 -19
-24 0 7 8 20 15 28 15 13 0 12 -3 -4 -15z m-95 -59 c-8 -8 -125 -92 -159 -115
l-35 -23 35 31 c36 32 149 111 158 111 3 0 3 -2 1 -4z m-1174 -1235 c-8 -17
-20 -33 -26 -37 -11 -7 5 29 24 54 17 21 18 13 2 -17z m-75 -152 c-7 -11 -14
-19 -16 -16 -7 7 7 37 17 37 6 0 5 -9 -1 -21z m-54 -135 c-4 -9 -9 -15 -11
-12 -3 3 -3 13 1 22 4 9 9 15 11 12 3 -3 3 -13 -1 -22z m-96 -266 c0 -26 -9
-19 -15 11 -2 12 0 19 6 16 5 -4 9 -16 9 -27z m-10 -48 c0 -5 -2 -10 -4 -10
-3 0 -8 5 -11 10 -3 6 -1 10 4 10 6 0 11 -4 11 -10z m6707 -1372 c-3 -8 -6 -5
-6 6 -1 11 2 17 5 13 3 -3 4 -12 1 -19z m-5237 -2558 c0 -5 -2 -10 -4 -10 -3
0 -8 5 -11 10 -3 6 -1 10 4 10 6 0 11 -4 11 -10z m55 -30 c3 -5 2 -10 -4 -10
-5 0 -13 5 -16 10 -3 6 -2 10 4 10 5 0 13 -4 16 -10z m85 -44 c19 -13 45 -26
58 -30 12 -4 22 -12 22 -17 0 -8 -92 34 -130 60 -13 10 -13 11 0 11 9 0 31
-11 50 -24z m245 -126 c3 -5 1 -10 -4 -10 -6 0 -11 5 -11 10 0 6 2 10 4 10 3
0 8 -4 11 -10z m210 -90 c3 -6 -1 -7 -9 -4 -18 7 -21 14 -7 14 6 0 13 -4 16
-10z m50 -20 c3 -6 -1 -7 -9 -4 -18 7 -21 14 -7 14 6 0 13 -4 16 -10z m380
-13 c16 -1 30 -8 33 -16 6 -17 -57 -5 -78 16 -13 12 -13 13 1 8 9 -3 29 -7 44
-8z m1500 -37 c3 -5 -1 -10 -10 -10 -9 0 -13 5 -10 10 3 6 8 10 10 10 2 0 7
-4 10 -10z m-41 -9 c3 -5 -4 -9 -17 -9 -12 0 -35 -3 -52 -6 -19 -5 -26 -4 -20
2 19 19 81 27 89 13z m-1149 -21 c3 -5 -3 -10 -15 -10 -12 0 -18 5 -15 10 3 6
10 10 15 10 5 0 12 -4 15 -10z m1009 -10 c-10 -4 -23 -5 -28 -2 -5 3 -1 9 10
12 10 4 23 5 28 2 5 -3 1 -9 -10 -12z m-954 0 c0 -5 -4 -10 -9 -10 -6 0 -13 5
-16 10 -3 6 1 10 9 10 9 0 16 -4 16 -10z m825 0 c3 -5 1 -10 -4 -10 -6 0 -11
5 -11 10 0 6 2 10 4 10 3 0 8 -4 11 -10z m65 0 c0 -5 -8 -10 -17 -10 -15 0
-16 2 -3 10 19 12 20 12 20 0z m-577 -27 c-7 -2 -21 -2 -30 0 -10 3 -4 5 12 5
17 0 24 -2 18 -5z"/>
<path d="M2034 4926 c-59 -26 -70 -105 -67 -496 2 -494 12 -1114 18 -1280 4
-91 8 -214 9 -275 1 -95 4 -110 19 -113 14 -3 17 4 17 37 0 48 15 63 16 15 1
-43 22 -83 43 -82 9 0 24 -3 34 -7 11 -4 17 -3 17 5 0 8 9 10 24 6 42 -10 134
-15 429 -21 270 -6 290 -5 310 12 17 14 19 15 9 1 -12 -15 -9 -16 40 -12 80 8
191 7 211 -1 11 -5 35 0 58 11 34 15 42 16 49 4 11 -17 128 -24 178 -11 17 5
32 6 32 2 0 -14 441 -1 543 15 27 5 37 3 37 -7 1 -10 5 -9 14 4 8 10 18 17 22
16 5 -1 29 1 54 5 83 12 199 14 203 2 3 -8 8 -8 18 -1 8 6 21 10 29 9 8 -1 38
-2 65 -3 36 -1 46 -4 35 -11 -8 -5 -10 -10 -5 -11 6 0 23 -2 40 -4 16 -2 35 0
41 6 8 7 14 7 19 -1 3 -5 11 -10 16 -10 6 0 7 5 4 10 -8 13 -2 13 29 -1 18 -8
33 -9 55 -1 17 6 31 8 31 3 0 -4 86 -7 191 -6 159 1 194 4 203 17 6 8 16 13
22 11 18 -6 25 26 13 50 -8 13 -8 22 -2 24 6 2 18 10 28 17 13 9 14 13 4 15
-16 2 -686 13 -709 11 -151 -10 -788 -9 -1365 2 -33 1 -91 -2 -130 -5 -38 -3
-162 -8 -275 -10 -113 -2 -216 -7 -230 -10 -14 -3 -68 -8 -120 -12 -52 -3
-113 -8 -135 -11 -22 -3 -48 -6 -57 -7 -16 -2 -18 30 -23 423 -4 234 -8 468
-10 520 -4 139 -14 482 -21 737 -3 122 -7 233 -10 245 -2 13 -6 50 -7 83 -3
48 -19 107 -30 105 -1 -1 -16 -7 -33 -14z m-17 -678 c-3 -8 -6 -5 -6 6 -1 11
2 17 5 13 3 -3 4 -12 1 -19z m7 -414 c3 -8 2 -12 -4 -9 -6 3 -10 10 -10 16 0
14 7 11 14 -7z m6 -355 c0 -5 -4 -9 -10 -9 -5 0 -10 7 -10 16 0 8 5 12 10 9 6
-3 10 -10 10 -16z m10 -350 c0 -6 -4 -7 -10 -4 -5 3 -10 11 -10 16 0 6 5 7 10
4 6 -3 10 -11 10 -16z m1 -116 c-9 -15 -10 -12 -10 17 0 29 1 32 10 18 7 -12
7 -24 0 -35z m-3 -128 c-3 -3 -9 2 -12 12 -6 14 -5 15 5 6 7 -7 10 -15 7 -18z"/>
<path d="M3605 4680 c-2 -4 -14 -6 -27 -5 -26 3 -75 -24 -121 -66 -17 -16 -35
-29 -38 -29 -25 0 -179 -271 -179 -315 0 -11 -6 -29 -13 -40 -7 -11 -14 -33
-15 -50 -1 -16 -7 -31 -12 -33 -6 -2 -10 -24 -10 -49 0 -25 -6 -71 -14 -102
-35 -141 -36 -355 -1 -521 11 -51 19 -78 29 -89 9 -12 8 -13 -6 -8 -26 9 -23
4 21 -42 22 -23 42 -49 46 -59 6 -18 70 -51 148 -77 87 -28 170 -16 234 35 35
27 47 25 27 -5 -15 -23 -15 -25 0 -31 10 -4 16 -18 16 -39 0 -36 18 -95 29
-95 4 0 17 9 29 20 26 24 30 25 53 4 18 -16 18 -13 17 54 -1 72 -17 92 -19 24
0 -28 -2 -32 -8 -18 -10 25 -4 119 11 171 l11 40 8 -30 7 -30 1 33 c0 18 10
65 22 105 27 93 38 147 30 148 -3 1 -9 1 -13 0 -5 0 -8 5 -8 13 0 7 -11 25
-25 40 -13 14 -22 33 -19 41 4 9 0 15 -9 15 -18 0 -52 -68 -73 -147 -24 -92
-97 -190 -159 -215 -45 -17 -115 -15 -148 6 -12 7 -34 16 -48 20 -49 11 -80
67 -96 174 -18 118 -11 323 12 390 3 7 0 10 -5 7 -9 -6 -18 -43 -24 -100 -2
-16 -8 -31 -15 -33 -8 -3 -10 6 -7 25 2 15 7 53 11 83 10 84 13 100 34 167 10
34 16 64 14 67 -3 3 -1 18 6 33 6 15 12 38 14 50 6 41 102 216 142 258 57 58
105 91 105 71 0 -20 26 -21 37 -1 5 8 22 15 39 17 31 2 94 -19 94 -32 0 -4 11
-12 25 -18 14 -6 25 -17 25 -24 0 -7 14 -33 30 -57 24 -34 29 -51 25 -80 -3
-20 -7 -51 -9 -69 -5 -36 -31 -82 -46 -82 -6 0 -10 -5 -10 -11 0 -26 61 28 76
68 10 24 24 48 33 53 14 8 14 9 -2 10 -13 0 -17 6 -15 23 2 12 9 21 16 19 32
-6 -13 133 -64 199 -51 64 -103 109 -126 109 -14 0 -28 3 -32 7 -9 10 -56 12
-61 3z m-30 -30 c3 -5 -1 -10 -10 -10 -9 0 -13 5 -10 10 3 6 8 10 10 10 2 0 7
-4 10 -10z m-208 -299 c-12 -22 -23 -38 -25 -37 -5 6 31 76 39 76 4 0 -2 -18
-14 -39z m-34 -66 c-3 -9 -8 -14 -10 -11 -3 3 -2 9 2 15 9 16 15 13 8 -4z
m-30 -83 c-3 -12 -10 -22 -15 -22 -5 0 -7 3 -5 8 2 4 7 16 11 26 9 25 17 16 9
-12z m-33 -136 c-9 -34 -20 -90 -24 -125 -4 -36 -9 -67 -11 -71 -2 -4 -7 -22
-10 -41 -11 -60 -17 -46 -10 21 4 36 9 68 11 72 4 6 31 147 39 203 2 11 4 22
4 25 1 3 5 -1 10 -9 5 -8 2 -37 -9 -75z m-18 -353 c-7 -36 -12 -27 -11 20 0
30 3 36 8 23 4 -11 6 -30 3 -43z m-18 -113 c4 -25 3 -31 -4 -20 -5 8 -10 26
-10 39 0 32 6 24 14 -19z m617 -81 c-5 -13 -10 -19 -10 -12 -1 15 10 45 15 40
3 -2 0 -15 -5 -28z m-260 -235 c-14 -10 -41 -16 -68 -16 -63 2 -68 12 -5 12
28 0 54 5 57 10 3 6 14 10 23 10 13 0 11 -4 -7 -16z m179 -44 c0 -22 -4 -40
-8 -40 -7 0 -8 22 -3 68 3 29 11 9 11 -28z"/>
<path d="M4424 4670 c-18 -9 -39 -23 -48 -32 -8 -9 -36 -26 -61 -38 -25 -12
-53 -33 -64 -46 -10 -13 -23 -24 -29 -24 -20 0 -45 -55 -48 -104 -1 -28 -5
-64 -8 -81 -6 -39 -18 -176 -21 -240 -3 -79 -16 -297 -20 -335 -2 -19 -6 -73
-10 -119 -6 -83 -11 -133 -21 -181 -2 -14 -7 -38 -9 -55 -3 -16 -13 -58 -22
-93 -13 -51 -19 -62 -32 -56 -27 12 -81 17 -81 8 0 -17 55 -103 90 -141 45
-49 116 -106 158 -127 38 -20 34 -40 -5 -25 -15 5 -34 7 -42 4 -22 -9 32 -31
89 -38 33 -4 55 1 94 21 28 14 53 29 54 34 2 4 11 8 21 8 9 0 24 8 33 18 28
29 46 41 52 35 3 -4 6 0 6 8 0 8 13 23 30 32 16 10 42 30 58 45 16 15 40 37
53 48 13 12 30 28 36 35 7 8 22 23 34 34 21 20 49 76 76 149 23 64 20 246 -6
343 -11 41 -92 163 -108 163 -7 0 -16 6 -20 13 -12 20 -69 57 -87 57 -9 0 -16
8 -16 20 0 21 11 33 86 100 57 51 90 99 105 150 16 58 17 78 1 178 -19 128
-76 201 -178 228 -81 22 -104 23 -140 4z m131 -120 c26 -28 15 -31 -14 -3 -13
13 -20 23 -14 23 5 0 18 -9 28 -20z m-8 -51 c13 -20 33 -64 43 -96 17 -56 17
-60 0 -105 -10 -26 -15 -49 -12 -52 2 -3 -3 -8 -12 -12 -9 -3 -16 -10 -16 -16
0 -14 -27 -38 -34 -31 -3 4 -6 1 -6 -5 0 -7 -7 -12 -15 -12 -9 0 -15 -9 -15
-21 0 -18 -2 -20 -16 -9 -13 11 -16 10 -21 -9 -3 -13 -11 -20 -19 -17 -7 3
-14 1 -16 -5 -2 -5 -13 -11 -25 -13 -50 -10 -133 -80 -133 -113 0 -16 1 -16
13 0 11 16 14 16 35 2 25 -18 30 -55 7 -55 -23 0 -18 -20 9 -30 13 -5 44 -11
67 -15 l44 -5 -25 21 -25 21 44 -6 c24 -3 50 -11 57 -17 8 -6 14 -8 14 -3 0 5
8 0 18 -12 9 -11 32 -31 50 -43 18 -13 41 -40 52 -62 21 -39 17 -53 -5 -22 -8
10 -14 12 -19 5 -3 -6 0 -16 7 -24 35 -34 52 -106 51 -209 -1 -53 -6 -69 -63
-189 -15 -34 -71 -99 -71 -84 0 4 -6 0 -13 -11 -8 -10 -19 -15 -25 -11 -7 4
-12 2 -12 -5 0 -19 -72 -81 -87 -75 -7 3 -22 -3 -33 -14 -31 -31 -71 -31 -123
1 -49 30 -66 64 -49 95 8 14 10 13 16 -10 4 -15 11 -24 17 -20 15 9 5 120 -12
140 -9 11 -10 17 -2 22 7 5 14 58 18 132 4 69 9 128 12 133 2 4 -1 7 -7 7 -6
0 -9 4 -6 8 2 4 6 66 7 137 2 72 6 139 10 150 4 12 10 86 13 165 4 80 8 161
10 180 3 19 7 62 11 95 7 63 15 86 15 42 0 -43 15 -38 16 6 2 51 32 79 120
112 73 27 104 19 141 -36z m-277 -1521 c0 -13 -23 -5 -28 10 -2 7 2 10 12 6 9
-3 16 -11 16 -16z"/>
<path d="M4270 4340 c-2 -19 -4 -47 -5 -61 -1 -15 -5 -34 -8 -43 -3 -8 -2 -18
4 -21 15 -10 20 17 16 91 -2 41 -5 55 -7 34z"/>
<path d="M4250 4166 c0 -45 15 -55 18 -11 2 18 -2 36 -8 40 -6 4 -10 -7 -10
-29z"/>
<path d="M4251 4064 c0 -11 3 -14 6 -6 3 7 2 16 -1 19 -3 4 -6 -2 -5 -13z"/>
<path d="M4430 3870 c0 -5 8 -10 18 -10 9 0 28 -9 42 -20 14 -11 30 -20 37
-20 7 0 16 -7 21 -16 8 -14 10 -14 15 -1 4 10 -2 17 -18 21 -14 3 -35 17 -49
31 -25 25 -66 34 -66 15z"/>
<path d="M4235 3691 c-3 -5 -1 -12 5 -16 5 -3 10 1 10 9 0 18 -6 21 -15 7z"/>
<path d="M4241 3584 c0 -11 3 -14 6 -6 3 7 2 16 -1 19 -3 4 -6 -2 -5 -13z"/>
<path d="M3540 4505 c-8 -9 -8 -15 -2 -15 12 0 26 19 19 26 -2 2 -10 -2 -17
-11z"/>
<path d="M3360 4234 c0 -8 5 -12 10 -9 6 4 8 11 5 16 -9 14 -15 11 -15 -7z"/>
<path d="M3326 4158 c-3 -18 -8 -55 -11 -81 -3 -26 -10 -59 -15 -73 -6 -14
-10 -35 -9 -47 1 -26 24 43 32 94 3 19 10 47 16 62 13 34 14 77 2 77 -5 0 -11
-15 -15 -32z"/>
<path d="M2391 3971 c-21 -16 -23 -23 -16 -57 4 -21 9 -47 10 -57 1 -10 8 -24
16 -32 12 -11 19 -9 46 14 52 44 50 90 -5 129 -27 20 -29 20 -51 3z"/>
<path d="M2956 3589 c-55 -44 -174 -241 -191 -316 -10 -50 -28 -24 -70 103
-34 103 -51 149 -77 202 l-11 22 -23 -21 c-31 -29 -26 -76 25 -227 18 -52 34
-115 37 -140 3 -26 15 -84 27 -130 l22 -83 32 6 c25 4 35 2 44 -13 12 -18 14
-17 31 17 11 20 28 69 39 110 22 88 91 235 126 273 14 14 23 32 21 39 -2 7
-22 -13 -44 -44 -21 -31 -42 -57 -47 -57 -11 0 29 75 69 127 19 25 32 48 29
51 -10 11 -52 -42 -85 -106 -29 -55 -50 -84 -50 -67 0 11 64 130 86 160 22 31
49 103 42 111 -3 2 -17 -5 -32 -17z m-105 -303 c-14 -36 -22 -33 -9 5 6 16 12
28 14 26 3 -2 0 -16 -5 -31z"/>
<path d="M2426 3542 c-20 -39 -27 -179 -10 -197 15 -15 23 -203 9 -209 -5 -3
-4 -5 3 -5 17 -1 15 -21 -3 -21 -11 0 -15 -12 -15 -50 0 -50 0 -50 33 -50 17
0 37 4 44 8 12 7 11 74 -2 267 -3 44 -7 119 -8 168 -2 64 -7 92 -19 103 -15
15 -18 14 -32 -14z m14 -457 c0 -8 -2 -15 -4 -15 -2 0 -6 7 -10 15 -3 8 -1 15
4 15 6 0 10 -7 10 -15z"/>
<path d="M2408 3305 c-6 -30 -3 -43 8 -33 3 4 4 19 2 35 l-3 28 -7 -30z"/>
<path d="M3810 3258 c0 -21 2 -38 4 -38 9 0 12 50 5 62 -6 8 -9 -1 -9 -24z"/>
<path d="M6911 3164 c0 -11 3 -14 6 -6 3 7 2 16 -1 19 -3 4 -6 -2 -5 -13z"/>
<path d="M4403 2285 c-36 -15 -44 -44 -18 -65 9 -7 13 -20 11 -29 -3 -9 -8
-28 -11 -43 -3 -16 -7 -38 -10 -50 -34 -162 -24 -205 44 -193 65 11 131 36
139 53 8 15 8 40 4 94 -1 9 -13 30 -27 46 l-25 30 32 11 c47 17 68 40 68 76 0
31 -29 74 -53 76 -63 8 -128 5 -154 -6z m133 -56 c13 -14 10 -17 -27 -28 -48
-14 -54 -11 -45 23 5 20 12 25 32 24 14 -1 32 -10 40 -19z m-46 -195 c0 -20
-25 -44 -44 -44 -3 0 -4 15 -2 33 2 17 4 41 5 51 1 18 2 18 21 1 11 -10 20
-28 20 -41z"/>
<path d="M5369 2270 c-15 -8 -36 -49 -58 -112 -10 -26 -12 -27 -37 -13 -24 12
-32 12 -63 -1 -19 -8 -43 -22 -53 -31 -19 -17 -57 -89 -63 -122 -10 -53 83
-72 129 -26 14 14 27 25 29 25 2 0 1 -18 -3 -40 -6 -31 -4 -40 6 -40 8 0 14
-6 14 -12 1 -23 16 13 65 146 65 181 75 249 34 226z m-99 -181 c0 -15 -94
-109 -109 -109 -6 0 -11 13 -11 29 0 41 49 91 89 91 17 0 31 -5 31 -11z"/>
<path d="M3706 2248 c-9 -13 -25 -51 -36 -83 -24 -71 -44 -95 -73 -89 -39 7
-105 -93 -93 -140 10 -41 51 -35 97 14 l38 40 13 -27 c13 -28 43 -42 59 -26 4
4 11 23 14 42 5 29 3 33 -13 29 -17 -5 -19 -1 -15 31 2 20 11 54 19 76 25 70
33 133 18 146 -9 8 -16 4 -28 -13z m-106 -217 c0 -4 -9 -18 -19 -30 l-20 -23
3 24 c3 31 15 50 27 43 5 -4 9 -10 9 -14z"/>
<path d="M3061 2243 c-33 -6 -176 -97 -176 -112 0 -6 -6 -16 -14 -20 -7 -5
-11 -13 -8 -18 3 -5 1 -15 -5 -23 -8 -12 -9 -12 -4 3 3 9 2 17 -3 17 -9 0 -41
-93 -41 -120 0 -41 84 -84 156 -78 39 3 55 1 58 -9 6 -15 66 -43 92 -43 13 0
15 6 9 28 -3 15 -12 34 -19 42 -7 8 -14 33 -15 55 -4 55 -17 77 -39 66 -9 -5
-25 -12 -35 -15 -9 -3 -21 -16 -26 -29 -10 -25 -38 -35 -78 -29 -28 4 -28 7
-2 77 34 91 118 160 210 172 30 4 40 2 45 -11 8 -20 24 -11 24 13 0 32 -58 47
-129 34z"/>
<path d="M1950 2196 c-14 -39 -40 -184 -44 -253 l-3 -63 26 6 c14 3 42 14 62
24 20 10 62 24 93 31 31 8 56 18 56 24 0 20 -58 45 -102 45 l-45 0 5 94 c4 88
3 95 -17 106 -18 9 -22 8 -31 -14z"/>
<path d="M2200 2180 c0 -5 7 -10 15 -10 8 0 15 5 15 10 0 6 -7 10 -15 10 -8 0
-15 -4 -15 -10z"/>
<path d="M4965 2109 c-8 -15 -15 -37 -15 -48 0 -20 -24 -51 -41 -51 -18 0 -21
50 -5 75 23 36 20 46 -11 39 -39 -9 -53 -31 -53 -84 0 -38 5 -51 29 -74 16
-16 34 -25 39 -22 35 22 11 -83 -29 -125 -34 -37 -36 -53 -9 -97 36 -59 61
-35 100 95 17 56 31 81 60 106 58 53 60 92 2 51 -32 -22 -32 -13 -2 94 9 34
15 64 11 66 -3 2 -19 4 -34 4 -20 0 -32 -8 -42 -29z"/>
<path d="M3437 2090 c-19 -16 -42 -30 -51 -30 -19 0 -30 -44 -27 -108 1 -22 2
-22 31 -7 17 9 30 22 30 29 0 8 3 16 8 18 4 2 27 27 52 56 36 43 41 55 30 62
-24 15 -37 12 -73 -20z"/>
<path d="M4008 2101 c-13 -10 -28 -16 -34 -14 -11 4 -40 -65 -51 -119 -5 -24
-3 -27 22 -24 16 2 33 10 39 18 8 10 16 12 26 6 9 -6 25 -6 41 0 21 8 26 17
27 49 2 44 -14 89 -33 97 -8 3 -24 -3 -37 -13z"/>
<path d="M4646 2086 c-55 -57 -60 -166 -8 -166 45 0 120 73 143 139 14 41 6
49 -54 57 -45 6 -49 5 -81 -30z"/>
<path d="M2304 2055 c0 -25 4 -45 8 -45 4 0 8 -17 10 -37 3 -34 6 -38 28 -35
37 6 49 19 66 79 12 42 13 57 4 68 -16 19 -44 19 -60 0 -12 -14 -15 -14 -30 0
-25 22 -27 19 -26 -30z"/>
<path d="M3227 2061 c-44 -22 -71 -72 -63 -116 5 -26 12 -35 27 -35 22 0 109
82 109 104 0 8 5 16 12 18 19 7 -7 41 -32 43 -12 1 -36 -5 -53 -14z"/>
<path d="M3776 2049 c-46 -54 -49 -121 -6 -128 36 -5 82 24 107 69 26 44 22
67 -14 81 -41 15 -60 10 -87 -22z m54 -20 c-7 -11 -14 -18 -17 -15 -3 3 0 12
7 21 18 21 23 19 10 -6z"/>
<path d="M2188 2048 c-21 -33 -27 -73 -13 -97 11 -21 12 -21 27 -4 23 25 39
98 25 112 -16 16 -23 14 -39 -11z"/>
<path d="M4142 2038 c-20 -20 -14 -25 36 -24 35 1 47 5 47 16 0 19 -65 26 -83
8z"/>
<path d="M4866 1835 c-9 -14 -13 -25 -8 -25 5 0 14 11 20 25 6 14 10 25 8 25
-2 0 -11 -11 -20 -25z"/>
<path d="M6496 1843 c-6 -14 -5 -15 5 -6 7 7 10 15 7 18 -3 3 -9 -2 -12 -12z"/>
<path d="M2626 1641 c-36 -7 -46 -30 -17 -38 12 -3 24 -17 28 -32 14 -56 2
-235 -18 -246 -5 -4 -7 -11 -4 -16 4 -5 2 -9 -3 -9 -6 0 -12 -6 -15 -14 -5
-12 5 -14 52 -12 31 1 63 6 70 10 7 5 23 3 37 -4 33 -18 55 2 52 47 -1 19 -5
36 -9 38 -3 3 -4 26 -1 52 13 134 13 185 2 198 -30 36 -50 -33 -54 -193 -3
-107 -5 -117 -23 -120 -23 -3 -23 -3 -25 108 -3 138 4 190 25 190 17 0 35 26
25 36 -8 8 -91 11 -122 5z"/>
<path d="M3653 1606 c0 -22 -53 -147 -72 -170 -9 -11 -10 -16 -4 -12 9 5 11 2
7 -8 -3 -8 -12 -17 -20 -20 -11 -4 -14 4 -14 37 0 37 -3 42 -22 43 -13 0 -39
5 -58 9 -52 13 -168 8 -212 -10 -21 -8 -23 8 -8 70 6 26 5 44 -2 52 -17 21
-25 15 -32 -19 -12 -63 -14 -73 -24 -98 -5 -14 -17 -32 -26 -39 -20 -17 -21
-32 0 -24 13 5 14 -1 9 -38 -8 -50 -9 -108 -3 -115 3 -2 12 2 22 9 11 8 20 35
26 74 9 66 15 83 30 83 6 0 6 -9 1 -22 -16 -42 3 -108 30 -108 5 0 18 19 30
43 21 41 57 87 69 87 3 0 6 -18 7 -41 2 -43 25 -89 45 -89 6 0 23 10 36 23
l24 22 15 -22 c23 -35 50 -28 85 21 30 44 51 50 62 19 9 -23 33 1 40 41 6 29
12 35 46 44 30 7 40 7 40 -2 0 -7 -3 -16 -7 -20 -4 -3 -12 -22 -19 -41 -10
-31 -10 -37 6 -45 27 -15 28 -15 47 46 22 70 13 86 -54 99 -42 8 -49 13 -47
30 4 26 7 76 5 93 -1 9 -6 10 -19 3 -13 -7 -22 -7 -29 0 -6 6 -10 5 -10 -5z"/>
<path d="M3876 1563 c-10 -10 -7 -21 8 -26 8 -3 17 0 20 8 5 14 -17 28 -28 18z"/>
<path d="M3013 1486 c-18 -20 -35 -30 -40 -25 -13 13 -58 -3 -59 -21 0 -8 -3
-30 -7 -49 -6 -28 -10 -31 -21 -22 -8 7 -13 20 -11 30 2 10 -1 24 -5 31 -6 10
-10 6 -15 -16 -3 -16 -10 -37 -16 -46 -14 -27 -11 -53 9 -71 25 -23 48 -21 65
4 l15 20 20 -21 c30 -33 53 -22 73 35 11 33 18 42 18 27 1 -13 -3 -32 -9 -42
-8 -15 -5 -18 26 -22 43 -5 54 11 54 76 0 35 -5 48 -22 60 l-22 16 23 21 c28
26 23 43 -16 47 -24 2 -36 -4 -60 -32z m-8 -99 c0 -26 -20 -25 -23 2 -3 16 1
22 10 19 7 -3 13 -12 13 -21z"/>
<path d="M4134 1479 c-22 -10 -48 -20 -59 -24 -13 -4 -16 -8 -8 -13 9 -6 7
-16 -7 -40 -19 -31 -27 -82 -14 -95 4 -3 29 23 56 58 28 36 54 65 59 65 5 0
12 1 16 3 4 1 6 -24 4 -55 -2 -38 3 -65 12 -78 15 -21 15 -21 36 6 13 16 21
42 22 68 3 121 1 127 -44 124 -19 -1 -52 -10 -73 -19z"/>
<path d="M3893 1462 c-7 -4 -19 -24 -28 -44 -12 -31 -13 -43 -2 -74 17 -52 38
-63 80 -41 32 18 97 101 97 125 0 28 -115 55 -147 34z m55 -59 c-23 -37 -35
-31 -24 12 4 16 14 25 26 25 19 0 19 -1 -2 -37z"/>
<path d="M2160 426 c0 -2 7 -7 16 -10 8 -3 12 -2 9 4 -6 10 -25 14 -25 6z"/>
<path d="M4850 409 c0 -5 5 -7 10 -4 6 3 10 8 10 11 0 2 -4 4 -10 4 -5 0 -10
-5 -10 -11z"/>
<path d="M4810 400 c0 -5 5 -10 11 -10 5 0 7 5 4 10 -3 6 -8 10 -11 10 -2 0
-4 -4 -4 -10z"/>
<path d="M4710 363 c-82 -31 -102 -48 -30 -27 56 17 110 41 110 49 0 7 -9 5
-80 -22z"/>
<path d="M4546 301 c-4 -5 3 -7 14 -4 23 6 26 13 6 13 -8 0 -17 -4 -20 -9z"/>
<path d="M3098 163 c6 -2 18 -2 25 0 6 3 1 5 -13 5 -14 0 -19 -2 -12 -5z"/>
<path d="M1215 6179 c-4 -6 -4 -13 -1 -16 3 -4 6 -1 6 5 0 6 8 13 18 15 15 4
15 5 0 6 -9 0 -20 -4 -23 -10z"/>
<path d="M1115 6091 c-3 -5 -1 -12 5 -16 5 -3 10 1 10 9 0 18 -6 21 -15 7z"/>
<path d="M1050 6030 c0 -5 5 -10 10 -10 6 0 10 5 10 10 0 6 -4 10 -10 10 -5 0
-10 -4 -10 -10z"/>
<path d="M987 5973 c-4 -3 -7 -11 -7 -17 0 -6 5 -5 12 2 6 6 9 14 7 17 -3 3
-9 2 -12 -2z"/>
<path d="M897 5876 c-4 -10 -1 -13 9 -9 15 6 19 23 5 23 -5 0 -11 -7 -14 -14z"/>
<path d="M810 5778 c-32 -34 -23 -45 10 -13 17 16 30 30 30 32 0 10 -22 0 -40
-19z"/>
<path d="M718 5666 c-29 -21 -22 -40 7 -19 24 18 32 33 18 33 -5 0 -16 -7 -25
-14z"/>
</g>
</svg>
